<?xml version="1.0" encoding="UTF-8"?><svg xmlns="http://www.w3.org/2000/svg" viewBox="0 0 122 38.13"><defs><style>.d{fill:#4d4d4d;}.e{fill:#7273ff;}</style></defs><g id="a"/><g id="b"><g id="c"><g><g><path class="d" d="M22,36.98H14V11.19c0-1.94-1.47-3.68-3.41-3.72s-3.59,1.55-3.59,3.6v25.92H0V11.37C0,6.28,3.4,1.69,8.36,.56c7.24-1.64,13.64,3.68,13.64,10.5v25.92Z"/><path class="e" d="M50,27.13c0,6.96-6.43,12.39-13.69,10.68-4.93-1.16-8.31-5.73-8.31-10.79V11.11c0-5.07,3.38-9.64,8.31-10.79,7.26-1.71,13.69,3.72,13.69,10.68V27.13Z"/><path class="d" d="M59.37,22.13C49.51,12.57,56.03,.98,65.33,.98h8.65l2.1,7h-12.34c-.43,0-.95,.31-1.17,.67-2.27,3.74-.31,7.76,5.9,6.26,1.24-.3,2.57,.04,3.49,.93,9.87,9.55,3.34,21.14-5.96,21.14h-9.37l-2.1-7h13.06c.43,0,.95-.31,1.17-.67,2.27-3.74,.31-7.76-5.9-6.26-1.24,.3-2.57-.04-3.49-.93Z"/><path class="d" d="M104,27.13c0,6.96-6.43,12.39-13.69,10.68-4.93-1.16-8.31-5.73-8.31-10.79V11.11c0-5.07,3.38-9.64,8.31-10.79,7.26-1.71,13.69,3.72,13.69,10.68V27.13Zm-8-.37V11.58c0-1.94-1.48-3.67-3.41-3.71s-3.59,1.51-3.59,3.5v15.19c0,1.94,1.48,3.67,3.41,3.71s3.59-1.51,3.59-3.5Z"/></g><g><path class="d" d="M114.1,36.19c-2.04,1.14-4.1-.3-4.1-2.22v-1.94l2-.5v2.53c0,.49,.39,.87,.88,.87s.89-.37,.87-1.1c-.02-.88,.38-1.74,1.15-2.17,2.04-1.14,4.1,.29,4.1,2.22v2.1l-2,.5v-2.7c0-.49-.39-.88-.88-.88s-.89,.37-.87,1.1c.02,.88-.38,1.74-1.15,2.17Z"/><path class="d" d="M119,27.98h3v2h-12v-2.52c0-1.37,1.11-2.48,2.48-2.48h4.05c1.37,0,2.48,1.11,2.48,2.48v.52Zm-5.87-1c-.46-.24-.83,.13-1.13,.59v1.41h5v-1.41c.25-.46-.11-.83-.57-.59h-3.3Z"/><path class="d" d="M116.61,18.98c1.59,0,2.83,1.47,2.42,3.13-.27,1.13-1.36,1.87-2.52,1.87h-3.48c-1.16,0-2.25-.74-2.52-1.87-.4-1.66,.84-3.13,2.42-3.13h3.67Zm-.02,1h-3.63c-.46,.49-.83,.85-.83,1.31s.36,.83,.83,.69h3.63c.46,.14,.83-.23,.83-.69s-.36-.83-.83-1.31Z"/><path class="d" d="M110,13.04l2-.5v1.49s1.13,1.65,1.95,1.95h5.05v2h-9v-2h2.17c-.84-.37-1.52-1.08-2.17-1.95v-.99Z"/><path class="d" d="M112,10.98v1.23l-2-.5v-.73h-3v-2h3v-1.72l2,.5v1.23h4.59s.83-.44,.41-.9v-.83l2,.5v.33c.07,1.37-2.41,2.9-2.41,2.9h-4.59Z"/><path class="d" d="M114.1,6.3c-2.04,1.14-4.1-.3-4.1-2.22v-1.94l2-.5v2.53c0,.49,.39,.87,.88,.87s.89-.37,.87-1.1c-.02-.88,.38-1.74,1.15-2.17,2.04-1.14,4.1,.29,4.1,2.22v2.1l-2,.5V3.9c0-.49-.39-.88-.88-.88s-.89,.37-.87,1.1c.02,.88-.38,1.74-1.15,2.17Z"/></g></g></g></g></svg>