<?xml version="1.0" encoding="UTF-8"?><svg id="Layer_2" xmlns="http://www.w3.org/2000/svg" xmlns:xlink="http://www.w3.org/1999/xlink" viewBox="0 0 35.93 27.85"><defs><style>.cls-1{fill:url(#radial-gradient);}.cls-2{fill:url(#radial-gradient-2);}.cls-3{fill:#3abff8;}</style><radialGradient id="radial-gradient" cx="16.41" cy="10.5" fx="16.41" fy="10.5" r="13.78" gradientUnits="userSpaceOnUse"><stop offset=".29" stop-color="#f371b5"/><stop offset=".37" stop-color="#ed73b7"/><stop offset=".47" stop-color="#dd7abc"/><stop offset=".58" stop-color="#c285c6"/><stop offset=".7" stop-color="#9d94d3"/><stop offset=".82" stop-color="#6fa8e4"/><stop offset=".94" stop-color="#3abff8"/></radialGradient><radialGradient id="radial-gradient-2" cx="-156.71" cy="-187.68" fx="-156.71" fy="-187.68" r="1.24" gradientTransform="translate(12.68 264.17) rotate(45)" xlink:href="#radial-gradient"/></defs><g id="Layer_11"><g><g><path class="cls-1" d="M31.29,3.61l.19,.5c-1.08,.5-2.32,1.01-3.69,1.54l-.38,.15c.06-.34,.12-.76,.18-1.24,.05-.39,.09-.74,.13-1.04,.06-.42,.09-.76,.09-1.02,0-.6-.29-.89-.86-.89-.93,0-2.02,.4-3.28,1.21-1.69,1.08-2.54,2.34-2.54,3.76,0,.52,.22,.86,.67,1.02,.45,.16,1.41,.24,2.87,.24h.19c.03-.31,.04-.53,.04-.64,0-.83-.12-1.56-.35-2.18,.99,.23,1.48,1.09,1.48,2.58v.25l2.32-.04c1.07,0,1.83,.08,2.28,.23,1.47,.52,2.2,1.58,2.2,3.19,0,2.17-.82,4.24-2.45,6.23-1.95,2.37-4.33,3.56-7.14,3.56-2.06,0-3.63-.82-4.7-2.47-2.44,1.52-5.03,2.28-7.76,2.28-2.1,0-4.01-.47-5.73-1.4C1.68,17.57,0,14.44,0,10.01,0,7.2,.75,4.9,2.26,3.1,3.77,1.31,5.7,.41,8.04,.41s4.24,.73,5.88,2.18c.92,.8,1.66,1.78,2.22,2.93,.56,1.16,1.2,3,1.92,5.54l.74,2.63c.4,1.42,.77,2.5,1.09,3.23,.98-.58,1.95-1.62,2.93-3.13,.98-1.51,1.58-2.91,1.81-4.19h-.68c-1.65,.01-2.81-.12-3.48-.39-.68-.27-1.01-.73-1.01-1.4,0-1.07,.6-2.3,1.79-3.67,.96-1.1,2.08-1.97,3.38-2.6,1.3-.63,2.98-1.12,5.04-1.47l.5-.09-.04,.23c-.1,.44-.18,.83-.24,1.17l-.24,1.38c-.07,.44-.1,.72-.1,.85,0,.28,.12,.42,.35,.42,.17,0,.34-.03,.52-.1,.39-.16,.68-.27,.86-.34Zm-13.01,14.39c-.47-1.03-.82-1.96-1.05-2.78l-1.18-4.3c-.94-3.42-2.06-5.91-3.38-7.46-1.32-1.55-2.97-2.32-4.94-2.32s-3.67,.68-4.83,2.05c-1.16,1.37-1.74,3.26-1.74,5.68,0,1.26,.23,2.53,.7,3.82,.47,1.29,1.1,2.41,1.9,3.35,1.01,1.19,2.22,2.12,3.65,2.78,1.43,.66,2.93,1,4.49,1,2.1,0,4.22-.6,6.37-1.81Zm7.48-8.41c-.33,1.37-1.02,2.8-2.08,4.29s-2.25,2.7-3.55,3.61c.48,1.02,1.01,1.74,1.6,2.16,.58,.41,1.34,.62,2.28,.62,1.9,0,3.58-.78,5.05-2.33s2.19-3.33,2.19-5.34c0-1.13-.32-1.91-.95-2.35-.64-.43-1.78-.65-3.42-.65h-1.11Z"/><circle class="cls-2" cx="34.57" cy="20.66" r="1.24"/></g><g><path class="cls-3" d="M1.12,25.94l.45-.28s.04-.04,.06-.06c.02-.03,.05-.06,.08-.11,.02-.04,.05-.07,.09-.1,.04-.03,.08-.05,.13-.07,.03-.03,.06-.07,.11-.12s.11-.1,.19-.16c.04-.02,.08-.05,.14-.08s.12-.08,.18-.14c.3-.27,.56-.47,.79-.6s.42-.2,.57-.2c.09,0,.15,.02,.19,.05,.04,.03,.06,.08,.06,.14,0,.07-.01,.12-.04,.17s-.06,.09-.12,.13c-.08,.06-.17,.12-.27,.19-.05,.07-.12,.13-.19,.21-.08,.07-.17,.15-.27,.22-.03,.04-.06,.08-.08,.11-.02,.02-.05,.04-.09,.08s-.11,.09-.18,.14c-.03,.07-.1,.16-.22,.27-.11,.11-.26,.24-.44,.39-.02,.02-.06,.07-.12,.15-.06,.08-.14,.18-.23,.31l.04,.04c.07-.02,.15-.06,.23-.11,.08-.05,.17-.12,.26-.21,.11-.1,.2-.18,.27-.24,.07-.06,.12-.1,.15-.12,.02-.01,.05-.03,.07-.04,.02-.01,.05-.03,.08-.05,.15-.17,.29-.3,.43-.38,.13-.08,.25-.12,.37-.12,.07,0,.12,.03,.16,.08,.04,.05,.06,.13,.06,.23,0,.16-.01,.31-.01,.45,0,.1,.03,.19,.09,.27,.06,.08,.14,.12,.24,.12,.03,0,.06,0,.09-.02,.03-.02,.06-.04,.09-.06,.02-.03,.04-.05,.07-.08,.02-.03,.04-.05,.07-.07,.01,0,.03-.02,.06-.03s.05-.03,.07-.06c.05,.09,.08,.18,.12,.25,.03,.07,.06,.13,.07,.18-.08,.07-.15,.13-.22,.2-.07,.07-.15,.14-.24,.2-.1,.07-.19,.13-.29,.16-.09,.04-.19,.05-.28,.05-.21,0-.38-.06-.49-.17-.12-.12-.18-.29-.2-.52,0-.03,0-.06-.01-.09,0-.03-.03-.06-.05-.09-.02,.02-.03,.03-.05,.05s-.04,.04-.07,.07c-.04,.03-.1,.07-.16,.12s-.14,.1-.22,.17c-.12,.11-.21,.2-.29,.28-.08,.07-.13,.12-.17,.15-.07,.05-.14,.11-.23,.16s-.19,.11-.3,.16c-.07,.03-.13,.06-.18,.08-.05,.02-.09,.03-.11,.03-.16,0-.28-.04-.35-.11s-.11-.19-.11-.34c0-.08,.02-.16,.06-.24,.04-.08,.09-.15,.17-.22,0-.04,0-.07,0-.1,0-.02,0-.03-.01-.05,0-.02-.02-.04-.03-.06-.02-.04-.04-.09-.07-.15-.02-.05-.05-.11-.08-.18,.01-.01,.03-.04,.06-.07s.05-.08,.09-.13Z"/><path class="cls-3" d="M4.76,26.14s.03-.05,.05-.07,.05-.06,.08-.1c.03-.02,.08-.06,.13-.11,.05-.05,.11-.1,.18-.16,.06-.06,.13-.14,.22-.23,.09-.09,.19-.2,.31-.33,.05-.05,.12-.12,.2-.2,.08-.08,.17-.18,.28-.3,.09-.1,.19-.18,.3-.23,.11-.05,.22-.07,.34-.07s.21,.04,.26,.11,.08,.17,.08,.31c0,.07-.03,.21-.08,.41s-.14,.47-.26,.8c-.03,.06-.06,.12-.08,.18-.02,.04-.03,.08-.04,.11,0,.03-.01,.05-.01,.07,0,.02,.01,.04,.04,.07,.02,0,.03-.02,.05-.04,.02-.02,.03-.03,.05-.06,.03-.05,.07-.1,.12-.15,.05-.05,.12-.11,.2-.17,.03-.05,.07-.1,.12-.16,.05-.05,.1-.1,.16-.14,.01-.01,.03-.03,.05-.06,.02-.03,.05-.06,.08-.09,.04-.04,.09-.08,.15-.13,.06-.04,.13-.09,.21-.14,.09-.04,.17-.08,.24-.1,.07-.03,.13-.04,.19-.04,.1,0,.19,.02,.27,.07s.15,.12,.2,.22c.07,.19,.13,.37,.19,.54,.04,.1,.08,.17,.12,.22,.04,.05,.09,.07,.15,.07,.04,0,.08,0,.12-.02,.04-.02,.07-.04,.1-.07l.2,.43c-.06,.04-.11,.09-.17,.14-.06,.05-.12,.09-.17,.14-.08,.07-.15,.11-.21,.14-.07,.03-.13,.04-.2,.04-.08,0-.15-.02-.22-.05-.07-.03-.13-.08-.18-.14-.03-.03-.06-.07-.1-.14-.04-.07-.09-.15-.14-.25-.04-.04-.09-.09-.15-.16-.05-.07-.12-.15-.19-.24h-.04c-.06,0-.12,.03-.19,.07-.06,.04-.13,.09-.19,.14-.15,.12-.26,.2-.32,.23-.07,.03-.11,.07-.13,.11-.05,.07-.13,.17-.24,.29-.11,.12-.25,.26-.42,.42-.04,.04-.09,.08-.13,.12s-.09,.08-.13,.11c-.04,.03-.09,.06-.15,.07-.06,.01-.11,.02-.18,.02-.13,0-.2-.04-.22-.13s-.02-.17-.03-.26c.05-.13,.11-.29,.17-.49,.06-.2,.13-.43,.22-.69,0-.02,0-.04,.02-.06s.03-.06,.04-.11c.02-.04,.03-.08,.03-.1s.01-.06,.01-.08,0-.04-.03-.05c-.02-.01-.04-.02-.08-.02-.03,0-.08,.02-.13,.06-.05,.04-.12,.1-.2,.18-.09,.09-.17,.17-.22,.22s-.09,.08-.11,.09c-.03,.02-.07,.05-.12,.09s-.09,.09-.15,.14c0,.01-.02,.03-.03,.06-.01,.03-.04,.05-.06,.08-.01-.05-.04-.1-.07-.17s-.08-.15-.13-.26Z"/><path class="cls-3" d="M9.49,26.14s.03-.02,.04-.04,.03-.04,.04-.08c.02-.03,.05-.07,.08-.1,.04-.04,.08-.08,.13-.12,.09-.07,.18-.16,.25-.27,.07-.11,.15-.23,.22-.37,.1-.2,.18-.36,.26-.5,.08-.14,.15-.24,.22-.31,.02-.07,.06-.19,.12-.34,.06-.16,.14-.36,.24-.61,.09-.24,.18-.43,.24-.58,.07-.15,.12-.25,.15-.31,.01-.02,.03-.05,.05-.08,.02-.03,.04-.08,.05-.13,.05-.15,.1-.28,.16-.41,.06-.13,.13-.25,.19-.36,.02-.03,.04-.05,.06-.07s.05-.02,.08-.02c.13,0,.23,.05,.29,.14,.06,.1,.1,.24,.1,.43,0,.21-.07,.5-.21,.87-.14,.37-.36,.82-.65,1.34-.06,.12-.12,.26-.19,.44-.07,.17-.14,.37-.21,.59-.06,.17-.11,.35-.16,.52-.05,.18-.11,.35-.16,.52-.05,.17-.09,.3-.12,.39s-.04,.16-.04,.19c0,.02,0,.04,.01,.05,0,0,.02,.01,.04,.01,.03,0,.06,0,.09-.03s.04-.05,.06-.08c.07-.09,.13-.19,.2-.31s.13-.24,.2-.38v-.14c.04-.21,.09-.35,.16-.43s.22-.14,.43-.19c.03,0,.09-.09,.2-.25,.11-.16,.25-.39,.43-.71,.1-.17,.18-.29,.25-.37,.07-.08,.12-.12,.15-.12,.08,0,.13,.02,.16,.07,.03,.05,.05,.12,.05,.21,0,.24-.14,.54-.43,.91s-.43,.61-.43,.72c0,.08,.08,.2,.23,.37,.15,.17,.28,.25,.38,.25,.03,0,.07-.01,.11-.03,.04-.02,.09-.05,.15-.1,.04-.03,.08-.06,.13-.1,.04-.04,.09-.07,.14-.1l.2,.43c-.09,.07-.17,.14-.24,.22-.08,.07-.16,.14-.24,.21-.1,.09-.19,.15-.29,.19-.1,.04-.19,.06-.29,.06s-.27-.1-.5-.29c-.24-.19-.36-.29-.38-.29-.12,.11-.23,.21-.32,.32-.06,.07-.12,.13-.18,.2-.06,.06-.12,.13-.18,.2-.02,.02-.04,.05-.08,.08-.04,.03-.08,.07-.12,.11-.05,.06-.1,.12-.16,.18-.06,.06-.13,.09-.22,.09-.13,0-.23-.04-.3-.11-.07-.07-.1-.18-.1-.33s.01-.31,.04-.48c.03-.17,.07-.34,.13-.53,.02-.09,.04-.16,.06-.23,.01-.07,.02-.13,.02-.18l-.04-.05s-.1,.11-.16,.18c-.07,.07-.14,.15-.23,.25-.01,0-.03,.03-.04,.05-.02,.02-.05,.07-.1,.14-.02-.04-.04-.09-.06-.14s-.05-.12-.08-.2c0-.02-.02-.04-.02-.05-.01-.02-.02-.03-.04-.04Z"/><path class="cls-3" d="M13.39,26.14l.03-.03v-.05c.1-.12,.26-.27,.48-.45,.22-.19,.38-.34,.46-.45,.03-.05,.07-.09,.11-.11,.04-.02,.09-.03,.13-.03,.12,0,.21,.03,.29,.08,.08,.05,.13,.14,.16,.25,.02,.1,.04,.19,.06,.29s.04,.2,.05,.3c.02,.06,.05,.16,.08,.28,.03,.13,.06,.2,.07,.22,.02,.03,.04,.05,.07,.07,.03,.01,.07,.02,.12,.02,.06,0,.12-.01,.18-.03s.13-.06,.19-.11c.05-.04,.1-.08,.16-.12,.06-.04,.11-.08,.16-.12l.2,.43c-.05,.05-.12,.11-.21,.17-.09,.06-.19,.14-.31,.22-.14,.09-.25,.16-.35,.21-.1,.05-.17,.07-.22,.07-.3,0-.49-.03-.58-.1s-.19-.25-.3-.55c-.01-.02-.03-.05-.06-.09-.03-.03-.06-.07-.09-.12-.04-.07-.07-.13-.1-.16-.03-.04-.05-.05-.07-.05-.05,0-.12,.03-.21,.1-.09,.07-.2,.17-.33,.3-.02-.04-.04-.09-.06-.14s-.05-.12-.08-.2c0-.02-.02-.04-.02-.05-.01-.02-.02-.03-.04-.04Zm2.07-3.69c.08,0,.14,.02,.18,.05,.04,.03,.06,.08,.06,.14-.02,.09-.04,.16-.05,.22-.03,.11-.06,.2-.09,.28-.02,.07-.04,.12-.06,.15-.03,.07-.07,.13-.12,.18s-.11,.1-.19,.14c-.08,.05-.14,.08-.19,.1-.05,.02-.09,.03-.11,.03-.06,0-.11-.01-.16-.02-.05,0-.1,0-.15,0-.04-.02-.08-.06-.1-.13s-.04-.15-.04-.25c0-.09,.06-.21,.18-.35,.12-.14,.23-.22,.32-.23,.06-.07,.12-.14,.2-.22,.03-.02,.08-.04,.13-.05,.05-.01,.11-.02,.18-.02Z"/><path class="cls-3" d="M16.22,26.14l.02-.04s.05-.06,.08-.09c.03-.04,.07-.08,.11-.13,.23-.21,.46-.45,.68-.74,.22-.29,.44-.61,.66-.98,.03-.03,.06-.08,.09-.14s.07-.13,.11-.21c0-.02,0-.03-.02-.04,0,0-.03-.01-.05-.01-.02,0-.05,0-.1,.02-.04,.01-.08,.02-.1,.02h-.62s-.07,0-.13,0c-.06,0-.11,0-.13,0-.03-.02-.06-.03-.09-.04-.03-.01-.06-.02-.08-.03-.04-.01-.07-.03-.09-.05-.02-.02-.03-.04-.03-.07,0-.2,.02-.35,.07-.46,.04-.11,.11-.16,.21-.16s.18,0,.26,.01c.08,0,.15,.02,.22,.03,.05,0,.09-.02,.14-.03,.09,0,.17,0,.23,0s.11,.01,.14,.02c.04,0,.09-.02,.13-.03,.04,0,.09-.02,.14-.03l.16,.05c.12-.01,.24-.17,.37-.46,.13-.29,.27-.44,.42-.44,.08,0,.14,.02,.18,.07s.06,.12,.06,.21c0,.07-.02,.17-.07,.28-.04,.12-.07,.21-.08,.26,0,.01,.02,.03,.03,.04,.01,.01,.03,.03,.05,.05,.02,.01,.03,.03,.04,.06,0,.03,.01,.07,.01,.11,0,.19,0,.33-.03,.43s-.05,.15-.09,.16l-.33,.07s-.02,.07-.02,.11c-.01,.05-.02,.1-.04,.16-.06,.16-.12,.35-.19,.59-.07,.24-.15,.52-.23,.85-.05,.26-.09,.47-.12,.64-.03,.16-.04,.27-.04,.33,0,.05,0,.09,.02,.11,.02,.03,.04,.04,.07,.04,.02,0,.09-.05,.22-.14,.12-.09,.3-.22,.52-.4l.19,.43s-.08,.07-.14,.12c-.06,.05-.13,.1-.21,.15-.03,.03-.07,.07-.12,.11s-.1,.09-.16,.15c-.06,.06-.12,.12-.18,.19s-.12,.12-.18,.18c-.08,.08-.16,.14-.23,.18s-.15,.05-.21,.05c-.15,0-.25-.04-.32-.12-.07-.08-.11-.2-.11-.37,0-.18,0-.34,.02-.47,.01-.13,.03-.24,.06-.32,.01-.02,.02-.05,.03-.07,0-.03,0-.07,.02-.13,0-.05,.02-.12,.03-.19,.02-.12,.04-.24,.06-.37,.04-.07,.07-.15,.11-.24,0-.02-.01-.03-.04-.04l-.05,.03c-.05,.07-.11,.15-.19,.24-.08,.08-.17,.17-.28,.26-.17,.15-.34,.31-.51,.46,0,.02-.03,.04-.05,.07-.03,.03-.06,.07-.09,.12-.02-.04-.04-.08-.06-.14s-.05-.12-.08-.2c0-.02-.02-.04-.02-.05-.01-.02-.02-.03-.04-.04Z"/><path class="cls-3" d="M21.5,26.14l.03-.03s.04-.09,.09-.14,.11-.1,.19-.15c.11-.07,.19-.12,.25-.16,.06-.04,.1-.07,.11-.09,.03-.03,.05-.06,.06-.08,.04-.02,.08-.06,.13-.1,.05-.04,.11-.1,.18-.16,.02-.02,.05-.04,.07-.07,.03-.03,.05-.07,.08-.12,.04-.03,.09-.06,.15-.11,.05-.04,.12-.1,.19-.17,.08-.08,.18-.18,.28-.28,.1-.1,.22-.21,.35-.32,.04-.02,.08-.03,.12-.04,.04-.01,.07-.02,.11-.02,.15,0,.26,.03,.33,.1,.07,.07,.11,.16,.11,.29,0,.03,0,.08-.02,.15-.01,.07-.02,.16-.04,.27-.05,.31-.08,.51-.1,.58s-.09,.28-.21,.65c-.03,.06-.05,.13-.08,.22-.03,.09-.06,.19-.1,.32,0,.01,.02,.03,.05,.04,.02,0,.06-.02,.12-.06,.06-.04,.14-.1,.24-.19,.12-.1,.21-.18,.27-.23,.07-.05,.11-.08,.12-.09,.04,.08,.08,.16,.11,.23,.03,.07,.06,.14,.08,.2-.04,.03-.08,.05-.12,.08-.03,.03-.07,.07-.1,.1-.07,.04-.15,.09-.24,.15-.09,.06-.19,.12-.3,.18-.05,.05-.12,.1-.2,.17-.08,.07-.18,.14-.28,.23l-.09,.02c-.05,.06-.09,.1-.13,.14-.04,.03-.08,.05-.11,.07-.05,.02-.11,.04-.16,.05-.05,.02-.11,.03-.17,.05-.04,0-.06-.03-.08-.06s-.02-.07-.02-.12c-.05-.08-.09-.18-.12-.29-.03-.11-.04-.23-.04-.36,0-.02,0-.05,0-.08,0-.03,0-.05,.01-.07-.02-.08-.04-.13-.04-.14,0-.09,.04-.17,.11-.23,.08-.06,.16-.09,.26-.09,.05,0,.09,.02,.11,.07,.02,.05,.04,.07,.07,.07s.05-.04,.07-.13c.03-.09,.05-.21,.07-.38,.02-.14,.04-.27,.04-.37,0-.11,0-.19,0-.24,0-.04,0-.07-.03-.09s-.05-.03-.09-.03-.18,.09-.42,.28c-.23,.19-.56,.47-.98,.84-.01,.02-.03,.05-.06,.08-.02,.03-.05,.07-.09,.12-.01-.05-.04-.1-.07-.17s-.08-.15-.13-.26Z"/><path class="cls-3" d="M24.59,26.14s.05-.05,.07-.09,.05-.08,.09-.12l.38-.25c.05-.05,.12-.12,.21-.2s.21-.18,.36-.3c.02-.03,.04-.07,.08-.12,.04-.04,.08-.09,.14-.13,.05-.04,.09-.08,.14-.11,.05-.04,.09-.07,.13-.11,.05-.05,.1-.09,.14-.14s.09-.09,.14-.14c.05-.04,.11-.08,.16-.1,.06-.02,.12-.04,.18-.04,.07,0,.13,0,.17,.03,.04,.02,.06,.04,.06,.07-.03,.07-.07,.14-.1,.22l.03,.04c.15-.05,.26-.09,.34-.12,.08-.03,.14-.04,.16-.04,.24,0,.42,.07,.54,.21,.12,.14,.18,.35,.18,.63,0,.05,0,.12-.02,.19-.01,.07-.04,.15-.06,.23-.03,.09-.07,.17-.11,.23s-.07,.11-.11,.14c.01,.04,.03,.07,.04,.09,.02,.02,.04,.03,.06,.03s.05,0,.08-.02c.03-.02,.06-.04,.1-.07,.03,.07,.07,.14,.1,.21,.03,.07,.06,.15,.1,.22-.06,.05-.12,.1-.17,.14-.06,.05-.12,.09-.18,.14-.08,.06-.15,.1-.21,.13-.07,.03-.13,.04-.2,.04-.08,0-.14-.02-.19-.05-.05-.03-.09-.08-.12-.14-.08,.1-.18,.2-.3,.28-.12,.09-.25,.16-.39,.21-.08,.04-.16,.07-.22,.09-.07,.02-.13,.03-.19,.03-.02,0-.05,0-.1,.02s-.09,.02-.12,.02c-.19,0-.36-.07-.51-.22-.15-.15-.23-.32-.23-.5,0-.07,.02-.17,.05-.3,.04-.12,.05-.2,.05-.22s0-.04-.02-.05c-.02-.01-.04-.02-.06-.02-.02,0-.06,.02-.12,.07s-.15,.11-.27,.2c0,.01-.02,.03-.03,.06-.01,.03-.04,.05-.06,.08-.03-.07-.06-.14-.09-.22-.03-.07-.07-.14-.11-.21Zm2.38-.86s-.04,.02-.07,.05-.06,.07-.09,.11c-.05,.07-.1,.15-.16,.23-.04,.04-.07,.07-.12,.09-.04,.02-.09,.04-.14,.04-.03,0-.07,.03-.1,.09-.04,.06-.07,.14-.11,.25-.04,.1-.06,.18-.08,.25-.02,.07-.02,.13-.02,.17,0,.09,.02,.15,.07,.2,.05,.04,.12,.07,.21,.07,.15,0,.29-.04,.42-.12s.25-.2,.36-.36c.05-.06,.1-.12,.15-.17,.03-.02,.05-.05,.06-.09,.02-.04,.03-.09,.05-.16l.09-.27c-.03-.09-.06-.17-.08-.22-.03-.05-.05-.09-.08-.1-.02,0-.05-.02-.11-.03-.06-.01-.14-.02-.24-.03Z"/><path class="cls-3" d="M28.17,26.14s.03-.05,.05-.07,.05-.06,.08-.1c.03-.02,.08-.06,.13-.11,.05-.05,.11-.1,.18-.16,.06-.06,.13-.14,.22-.23,.09-.09,.19-.2,.31-.33,.05-.05,.12-.12,.2-.2,.08-.08,.17-.18,.28-.3,.09-.1,.19-.18,.3-.23,.11-.05,.22-.07,.34-.07s.21,.04,.26,.11,.08,.17,.08,.31c0,.07-.03,.21-.08,.41s-.14,.47-.26,.8c-.03,.06-.06,.12-.08,.18-.02,.04-.03,.08-.04,.11,0,.03-.01,.05-.01,.07,0,.02,.01,.04,.04,.07,.02,0,.03-.02,.05-.04,.02-.02,.03-.03,.05-.06,.03-.05,.07-.1,.12-.15,.05-.05,.12-.11,.2-.17,.03-.05,.07-.1,.12-.16,.05-.05,.1-.1,.16-.14,.01-.01,.03-.03,.05-.06,.02-.03,.05-.06,.08-.09,.04-.04,.09-.08,.15-.13,.06-.04,.13-.09,.21-.14,.09-.04,.17-.08,.24-.1,.07-.03,.13-.04,.19-.04,.1,0,.19,.02,.27,.07s.15,.12,.2,.22c.07,.19,.13,.37,.19,.54,.04,.1,.08,.17,.12,.22,.04,.05,.09,.07,.15,.07,.04,0,.08,0,.12-.02,.04-.02,.07-.04,.1-.07l.2,.43c-.06,.04-.11,.09-.17,.14-.06,.05-.12,.09-.17,.14-.08,.07-.15,.11-.21,.14-.07,.03-.13,.04-.2,.04-.08,0-.15-.02-.22-.05-.07-.03-.13-.08-.18-.14-.03-.03-.06-.07-.1-.14-.04-.07-.09-.15-.14-.25-.04-.04-.09-.09-.15-.16-.05-.07-.12-.15-.19-.24h-.04c-.06,0-.12,.03-.19,.07-.06,.04-.13,.09-.19,.14-.15,.12-.26,.2-.32,.23-.07,.03-.11,.07-.13,.11-.05,.07-.13,.17-.24,.29-.11,.12-.25,.26-.42,.42-.04,.04-.09,.08-.13,.12s-.09,.08-.13,.11c-.04,.03-.09,.06-.15,.07-.06,.01-.11,.02-.18,.02-.13,0-.2-.04-.22-.13s-.02-.17-.03-.26c.05-.13,.11-.29,.17-.49,.06-.2,.13-.43,.22-.69,0-.02,0-.04,.02-.06s.03-.06,.04-.11c.02-.04,.03-.08,.03-.1s.01-.06,.01-.08,0-.04-.03-.05c-.02-.01-.04-.02-.08-.02-.03,0-.08,.02-.13,.06-.05,.04-.12,.1-.2,.18-.09,.09-.17,.17-.22,.22s-.09,.08-.11,.09c-.03,.02-.07,.05-.12,.09s-.09,.09-.15,.14c0,.01-.02,.03-.03,.06-.01,.03-.04,.05-.06,.08-.01-.05-.04-.1-.07-.17s-.08-.15-.13-.26Z"/><path class="cls-3" d="M32.9,26.14l.03-.03v-.05c.1-.12,.26-.27,.48-.45,.22-.19,.38-.34,.46-.45,.03-.05,.07-.09,.11-.11,.04-.02,.09-.03,.13-.03,.12,0,.21,.03,.29,.08,.08,.05,.13,.14,.16,.25,.02,.1,.04,.19,.06,.29s.04,.2,.05,.3c.02,.06,.05,.16,.08,.28,.03,.13,.06,.2,.07,.22,.02,.03,.04,.05,.07,.07,.03,.01,.07,.02,.12,.02,.06,0,.12-.01,.18-.03s.13-.06,.19-.11c.05-.04,.1-.08,.16-.12,.06-.04,.11-.08,.16-.12l.2,.43c-.05,.05-.12,.11-.21,.17-.09,.06-.19,.14-.31,.22-.14,.09-.25,.16-.35,.21-.1,.05-.17,.07-.22,.07-.3,0-.49-.03-.58-.1s-.19-.25-.3-.55c-.01-.02-.03-.05-.06-.09-.03-.03-.06-.07-.09-.12-.04-.07-.07-.13-.1-.16-.03-.04-.05-.05-.07-.05-.05,0-.12,.03-.21,.1-.09,.07-.2,.17-.33,.3-.02-.04-.04-.09-.06-.14s-.05-.12-.08-.2c0-.02-.02-.04-.02-.05-.01-.02-.02-.03-.04-.04Z"/></g></g></g></svg>