<?xml version="1.0" encoding="UTF-8"?><svg xmlns="http://www.w3.org/2000/svg" viewBox="0 0 2248.22 1170.02"><defs><style>.cls-1{opacity:.4;}.cls-1,.cls-2{mix-blend-mode:multiply;}.cls-3{stroke:#570df8;}.cls-3,.cls-4,.cls-5{fill:none;stroke-miterlimit:10;stroke-width:.75px;}.cls-6{isolation:isolate;}.cls-4{stroke:#00cdbe;}.cls-5{stroke:#6505fc;}</style></defs><g class="cls-6"><g id="Layer_2"><g id="Layer_1-2"><g class="cls-1"><path class="cls-3" d="M17.04,983.66c-7.43-33.97-12.65-68.23-15.64-102.52-1.33-15.25-2.17-30.87,2.64-45.19,12.29-36.59,56.66-53.71,97.78-61.67,37.87-7.33,76.96-10.46,116.18-9.31,38.87,1.14,78.5,6.44,116.05-.73,37.55-7.18,73.81-30.75,78.91-65.68,3.03-20.79-5.5-42.6-19.28-60.32-13.78-17.72-32.45-31.86-51.73-44.58-22.08-14.57-46.32-28.63-59.21-50.47-13.34-22.61-11.23-51.45,5.18-70.63,23.34-27.29,66.32-31.11,104.13-37.81,48.04-8.52,95.56-25.87,127.04-59.13,31.47-33.26,43.15-84.93,18.48-125.53"/><path class="cls-3" d="M27.98,987.11c-7.33-33.36-12.35-67.01-15.05-100.67-1.2-14.96-1.91-30.28,2.8-44.34,9.95-29.72,40.9-46.73,73.85-56.55,6.94-2.08,13.97-3.83,20.91-5.32,36.76-7.87,74.84-11.64,113.14-11.21,37.93,.43,76.73,5.14,113.51-2.36,18.73-3.82,37.23-11.29,52.1-22.06,15.38-11.15,26.86-26.04,30.08-43.97,.12-.67,.23-1.35,.33-2.02,3.09-21.62-6.25-44.18-20.44-62.7-13.94-18.13-32.49-32.95-51.37-46.44-21.65-15.56-44.62-30.88-56.73-53.12-12.15-22.32-10.22-50.15,5.7-68.98,22.67-26.82,64.07-31.28,100.27-38.59,45.98-9.22,91-26.93,120.38-59.64,29.44-32.62,39.73-82.65,15.21-121.83"/><path class="cls-3" d="M38.91,990.55c-7.23-32.74-12.04-65.79-14.47-98.82-1.08-14.68-1.65-29.69,2.96-43.5,9.74-29.2,39.59-46.3,71.47-56.46,6.72-2.16,13.54-4.01,20.27-5.61,35.66-8.41,72.72-12.81,110.1-13.12,37-.28,74.96,3.8,110.97-3.99,19.37-4.19,38.6-11.87,54.19-22.92,16.08-11.41,28.27-26.8,31.58-45.41,.12-.7,.24-1.4,.33-2.1,3.15-22.45-6.99-45.76-21.6-65.07-14.1-18.54-32.56-33.99-51-48.31-21.27-16.51-42.92-33.09-54.26-55.78-10.99-22-9.2-48.86,6.23-67.32,22-26.36,61.82-31.46,96.41-39.36,43.91-9.92,86.36-28.05,113.73-60.14s36.31-80.37,11.94-118.13"/><path class="cls-3" d="M49.84,994c-7.13-32.13-11.74-64.57-13.88-96.97-.96-14.4-1.39-29.1,3.12-42.66,9.53-28.69,38.29-45.86,69.1-56.38,6.5-2.24,13.1-4.19,19.63-5.89,34.55-8.95,70.6-13.99,107.06-15.03,36.07-.99,73.18,2.42,108.43-5.63,20.02-4.57,39.96-12.45,56.28-23.78,16.78-11.67,29.68-27.55,33.08-46.85,.13-.72,.24-1.45,.34-2.18,3.21-23.28-7.74-47.33-22.76-67.45-14.26-18.95-32.62-35.06-50.64-50.17-20.86-17.49-41.23-35.26-51.79-58.43-9.86-21.64-8.19-47.56,6.75-65.66,21.33-25.89,59.57-31.64,92.54-40.14,41.85-10.62,81.75-29.14,107.07-60.65s32.89-78.09,8.67-114.43"/><path class="cls-3" d="M60.78,997.44c-7.03-31.52-11.43-63.35-13.3-95.12-.83-14.12-1.13-28.52,3.28-41.82,9.33-28.17,37-45.36,66.72-56.29,6.29-2.31,12.67-4.37,18.99-6.18,33.45-9.49,68.48-15.16,104.02-16.94,35.13-1.7,71.4,1.02,105.89-7.26,20.67-4.96,41.33-13.03,58.36-24.64,17.47-11.93,31.08-28.31,34.58-48.29,.13-.75,.25-1.51,.35-2.26,3.27-24.12-8.44-48.95-23.91-69.82-14.37-19.39-32.67-36.14-50.28-52.03-20.46-18.47-39.54-37.4-49.32-61.08-8.77-21.24-7.18-46.26,7.28-64.01,20.67-25.42,57.3-31.9,88.68-40.92,39.76-11.43,77.15-30.22,100.42-61.16,23.18-30.82,29.47-75.81,5.4-110.73"/><path class="cls-3" d="M71.71,1000.89c-6.93-30.91-11.12-62.14-12.72-93.27-.71-13.83-.87-27.93,3.43-40.98,9.12-27.66,35.7-44.91,64.35-56.2,6.08-2.4,12.23-4.55,18.35-6.46,32.35-10.04,66.36-16.34,100.98-18.84,34.2-2.41,69.62-.41,103.34-8.89,21.31-5.36,42.7-13.62,60.45-25.49,18.17-12.18,32.49-29.07,36.08-49.73,.14-.78,.26-1.56,.36-2.34,3.33-24.95-9.18-50.53-25.07-72.2-14.53-19.8-32.73-37.22-49.91-53.89-20.05-19.45-37.86-39.49-46.84-63.74-7.71-20.81-6.17-44.96,7.81-62.35,20-24.96,55.04-32.09,84.82-41.69,37.69-12.15,72.54-31.3,93.77-61.67,21.1-30.2,26.05-73.53,2.13-107.03"/><path class="cls-3" d="M82.64,1004.33c-6.83-30.29-10.82-60.92-12.13-91.42-.59-13.55-.61-27.34,3.59-40.14,8.91-27.14,34.4-44.46,61.97-56.11,5.86-2.48,11.8-4.73,17.71-6.75,31.24-10.58,64.24-17.52,97.93-20.75,33.26-3.12,67.83-1.87,100.8-10.52,21.96-5.76,44.06-14.2,62.54-26.35,18.86-12.44,33.9-29.83,37.58-51.17,.14-.81,.26-1.61,.37-2.43,3.39-25.78-9.92-52.11-26.23-74.58-14.68-20.21-32.78-38.3-49.55-55.75-19.64-20.44-36.2-41.56-44.37-66.39-6.69-20.34-5.16-43.66,8.33-60.69,19.33-24.49,52.78-32.28,80.95-42.47,35.62-12.87,67.93-32.37,87.11-62.18,19.03-29.57,22.62-71.25-1.14-103.33"/><path class="cls-3" d="M93.58,1007.78c-6.73-29.68-10.51-59.7-11.55-89.57-.46-13.27-.35-26.75,3.75-39.3,8.7-26.63,33.1-44.01,59.6-56.03,5.64-2.56,11.37-4.91,17.07-7.03,30.14-11.12,62.12-18.69,94.89-22.66,32.33-3.83,66.03-3.34,98.26-12.15,22.61-6.18,45.43-14.78,64.63-27.21,19.56-12.7,35.3-30.58,39.09-52.61,.14-.83,.27-1.67,.38-2.51,3.45-26.61-10.66-53.69-27.39-76.95-14.84-20.63-32.83-39.39-49.19-57.62-19.23-21.43-34.56-43.59-41.9-69.05-5.72-19.85-4.15-42.36,8.86-59.03,18.67-24.03,50.52-32.47,77.09-43.24,33.54-13.59,63.33-33.44,80.46-62.69,16.95-28.94,19.2-68.96-4.41-99.63"/><path class="cls-3" d="M104.51,1011.22c-6.63-29.07-10.21-58.48-10.96-87.72-.34-12.98-.09-26.16,3.91-38.45,8.5-26.12,31.8-43.57,57.22-55.94,5.43-2.64,10.93-5.09,16.43-7.32,29.03-11.66,60.01-19.87,91.85-24.57,31.39-4.54,64.24-4.84,95.72-13.78,23.25-6.6,46.8-15.36,66.72-28.07,20.26-12.96,36.71-31.34,40.59-54.05,.15-.86,.27-1.72,.39-2.59,3.51-27.45-11.4-55.27-28.55-79.33-15-21.03-32.88-40.47-48.83-59.48-18.81-22.42-32.96-45.59-39.43-71.7-4.79-19.33-3.13-41.07,9.38-57.38,18-23.56,48.26-32.66,73.23-44.02,31.47-14.31,58.72-34.51,73.8-63.2s15.78-66.68-7.68-95.93"/><path class="cls-3" d="M115.44,1014.67c-6.53-28.46-9.9-57.26-10.38-85.87-.21-12.7,.17-25.57,4.07-37.61,8.29-25.6,30.5-43.12,54.84-55.85,5.21-2.72,10.5-5.27,15.79-7.6,27.93-12.2,57.89-21.04,88.81-26.48,30.46-5.25,62.44-6.35,93.18-15.41,23.89-7.04,48.17-15.94,68.81-28.92,20.95-13.21,38.12-32.1,42.09-55.49,.15-.89,.28-1.78,.39-2.67,3.56-28.28-12.15-56.85-29.71-81.7-15.15-21.44-32.93-41.56-48.46-61.34-18.4-23.42-31.39-47.56-36.95-74.35-3.9-18.79-2.12-39.77,9.91-55.72,17.33-23.1,45.99-32.85,69.37-44.79,29.39-15.02,54.12-35.56,67.15-63.71,12.81-27.67,12.36-64.4-10.95-92.23"/><path class="cls-3" d="M126.37,1018.11c-6.43-27.84-9.59-56.05-9.79-84.02-.09-12.42,.42-24.98,4.22-36.77,8.08-25.09,29.2-42.68,52.47-55.76,4.99-2.81,10.06-5.45,15.15-7.89,26.82-12.74,55.77-22.22,85.77-28.38,29.52-5.96,60.63-7.88,90.63-17.04,24.53-7.49,49.53-16.52,70.9-29.78,21.65-13.47,39.52-32.86,43.59-56.93,.15-.91,.29-1.83,.4-2.75,3.62-29.11-12.89-58.43-30.87-84.08-15.32-21.85-32.97-42.65-48.1-63.2-17.98-24.42-29.87-49.52-34.48-77.01-3.05-18.23-1.11-38.47,10.44-54.06,16.66-22.63,43.73-33.03,65.5-45.57,27.31-15.73,49.52-36.61,60.49-64.22,10.74-27.02,8.94-62.12-14.22-88.53"/><path class="cls-3" d="M137.31,1021.56c-6.33-27.23-9.29-54.83-9.21-82.17,.03-12.13,.68-24.39,4.38-35.93,7.87-24.57,27.9-42.24,50.09-55.68,4.78-2.89,9.63-5.63,14.51-8.17,25.72-13.28,53.65-23.4,82.73-30.29,28.59-6.67,58.82-9.43,88.09-18.68,25.16-7.95,50.9-17.1,72.99-30.64,22.35-13.73,40.93-33.61,45.09-58.37,.16-.94,.29-1.88,.41-2.83,3.68-29.94-13.64-60-32.03-86.45-15.48-22.26-33.01-43.75-47.74-65.06-17.56-25.41-28.41-51.45-32.01-79.66-2.25-17.66-.1-37.17,10.96-52.41,16-22.16,41.47-33.21,61.64-46.35,25.23-16.43,44.93-37.66,53.84-64.73s5.52-59.84-17.49-84.83"/><path class="cls-3" d="M148.24,1025c-6.23-26.62-8.98-53.61-8.62-80.32,.16-11.85,.94-23.8,4.54-35.09,7.67-24.06,26.6-41.81,47.72-55.59,4.56-2.98,9.2-5.81,13.87-8.46,24.61-13.82,51.53-24.57,79.69-32.2,27.66-7.38,57-10.99,85.55-20.31,25.79-8.42,52.27-17.68,75.08-31.5,23.04-13.99,42.34-34.37,46.59-59.81,.16-.97,.3-1.94,.42-2.91,3.74-30.78-14.39-61.58-33.19-88.83-15.64-22.67-33.05-44.84-47.37-66.92-17.13-26.42-27.01-53.38-29.53-82.32-1.49-17.09,.91-35.87,11.49-50.75,15.33-21.7,39.21-33.39,57.78-47.12,23.16-17.13,40.34-38.69,47.19-65.24,6.63-25.7,2.1-57.56-20.76-81.13"/><path class="cls-3" d="M159.17,1028.45c-6.13-26-8.68-52.39-8.04-78.47,.28-11.57,1.2-23.22,4.7-34.25,7.46-23.54,25.29-41.37,45.34-55.5,4.34-3.06,8.76-5.99,13.23-8.74,23.51-14.36,49.41-25.75,76.65-34.11,26.72-8.09,55.18-12.56,83.01-21.94,26.42-8.91,53.63-18.26,77.17-32.35,23.74-14.24,43.74-35.13,48.09-61.25,.17-1,.31-1.99,.43-2.99,3.8-31.61-15.14-63.16-34.35-91.2-15.8-23.07-33.09-45.94-47.01-68.79-16.7-27.42-25.68-55.3-27.06-84.97-.77-16.51,1.92-34.57,12.01-49.09,14.66-21.23,36.95-33.56,53.91-47.9,21.09-17.82,35.77-39.72,40.53-65.75s-1.33-55.28-24.03-77.43"/><path class="cls-3" d="M170.11,1031.89c-6.03-25.39-8.37-51.18-7.45-76.62,.4-11.29,1.46-22.63,4.86-33.41,7.25-23.03,23.99-40.94,42.96-55.41,4.13-3.15,8.33-6.17,12.59-9.03,22.41-14.91,47.29-26.92,73.6-36.01,25.79-8.8,53.36-14.14,80.47-23.57,27.04-9.41,55-18.84,79.26-33.21,24.44-14.5,45.15-35.88,49.59-62.69,.17-1.02,.31-2.04,.44-3.07,3.86-32.44-15.89-64.73-35.51-93.58-15.97-23.48-33.12-47.03-46.65-70.65-16.27-28.42-24.43-57.23-24.59-87.62-.09-15.94,2.94-33.28,12.54-47.44,14-20.77,34.69-33.72,50.05-48.67,19.02-18.51,31.2-40.75,33.88-66.26s-4.75-53-27.3-73.73"/><path class="cls-3" d="M181.04,1035.34c-5.93-24.78-8.06-49.96-6.87-74.77,.53-11,1.72-22.04,5.01-32.56,7.04-22.51,22.68-40.51,40.59-55.33,3.91-3.23,7.89-6.35,11.95-9.31,21.3-15.45,45.17-28.1,70.56-37.92,24.85-9.51,51.53-15.73,77.93-25.2s56.37-19.42,81.35-34.07c25.13-14.76,46.56-36.64,51.09-64.13,.17-1.05,.32-2.1,.44-3.15,3.92-33.27-16.69-66.27-36.66-95.95-16.17-23.85-33.15-48.13-46.28-72.51-15.84-29.42-23.26-59.18-22.12-90.28,.57-15.37,3.95-31.98,13.07-45.78,13.33-20.3,32.44-33.88,46.19-49.45,16.95-19.19,26.66-41.78,27.22-66.77,.54-23.69-8.17-50.72-30.57-70.04"/><path class="cls-3" d="M191.97,1038.78c-5.82-24.17-7.76-48.74-6.29-72.92,.65-10.72,1.98-21.45,5.17-31.72,6.84-22,21.37-40.09,38.21-55.24,3.69-3.32,7.46-6.53,11.31-9.6,20.2-15.99,43.05-29.27,67.52-39.83,23.92-10.22,49.69-17.33,75.38-26.83,28.26-10.45,57.74-20.01,83.43-34.92,25.83-15.01,47.96-37.4,52.59-65.57,.18-1.08,.33-2.15,.45-3.23,3.98-34.11-17.44-67.85-37.82-98.33-16.33-24.26-33.19-49.22-45.92-74.37-15.41-30.43-22.19-61.15-19.64-92.93,1.19-14.82,4.96-30.68,13.59-44.12,12.66-19.84,30.19-34.04,42.33-50.22,14.89-19.86,22.13-42.8,20.57-67.28-1.47-23.03-11.59-48.44-33.84-66.34"/><path class="cls-3" d="M202.91,1042.22c-5.72-23.55-7.45-47.52-5.7-71.07,.77-10.44,2.24-20.86,5.33-30.88,6.63-21.49,20.06-39.66,35.84-55.15,3.47-3.41,7.02-6.71,10.67-9.88,19.09-16.53,40.93-30.45,64.48-41.74,22.98-10.93,47.86-18.94,72.84-28.46,28.86-11,59.1-20.59,85.52-35.78,26.52-15.27,49.37-38.16,54.09-67.01,.18-1.1,.33-2.21,.46-3.31,4.04-34.94-18.19-69.42-38.98-100.7-16.49-24.67-33.21-50.32-45.56-76.23-14.97-31.43-21.22-63.15-17.17-95.59,1.78-14.29,5.97-29.38,14.12-42.46,11.99-19.37,27.95-34.19,38.46-51,12.85-20.53,17.61-43.84,13.91-67.79-3.45-22.36-15.01-46.16-37.11-62.64"/><path class="cls-3" d="M213.84,1045.67c-5.62-22.94-7.15-46.3-5.12-69.22,.9-10.15,2.5-20.27,5.49-30.04,6.42-20.97,18.74-39.24,33.46-55.07,3.25-3.49,6.59-6.89,10.03-10.17,17.99-17.07,38.81-31.63,61.44-43.65,22.05-11.64,46.01-20.56,70.3-30.09,29.45-11.56,60.47-21.17,87.61-36.64,27.22-15.53,50.78-38.91,55.59-68.45,.18-1.13,.34-2.26,.47-3.39,4.1-35.77-18.93-71-40.14-103.08-16.65-25.08-33.19-51.44-45.19-78.1-14.47-32.46-20.35-65.2-14.7-98.24,2.36-13.79,6.98-28.08,14.64-40.81,11.33-18.91,25.72-34.34,34.6-51.77,10.81-21.21,13.11-44.89,7.26-68.3-5.43-21.71-18.43-43.88-40.38-58.94"/><path class="cls-3" d="M224.77,1049.11c-5.52-22.33-6.84-45.09-4.53-67.37,1.02-9.87,2.76-19.68,5.65-29.2,6.21-20.46,17.42-38.82,31.08-54.98,3.03-3.58,6.16-7.07,9.39-10.45,16.88-17.61,36.69-32.8,58.4-45.55,21.12-12.35,44.16-22.18,67.76-31.73,30.03-12.15,61.84-21.75,89.7-37.5,27.92-15.79,52.18-39.67,57.09-69.89,.19-1.16,.35-2.31,.48-3.47,4.16-36.6-19.68-72.58-41.3-105.45-16.81-25.49-33.23-52.52-44.83-79.96-14.04-33.46-19.58-67.32-12.23-100.89,2.92-13.31,7.99-26.79,15.17-39.15,10.66-18.44,23.49-34.5,30.74-52.55,8.78-21.88,8.62-45.95,.61-68.81-7.39-21.08-21.85-41.59-43.65-55.24"/><path class="cls-3" d="M235.7,1052.56c-5.42-21.72-6.53-43.87-3.95-65.52,1.14-9.59,3.02-19.09,5.81-28.36,6-19.94,16.07-38.42,28.71-54.89,2.8-3.67,5.72-7.25,8.75-10.74,15.78-18.15,34.57-33.98,55.36-47.46,20.18-13.06,42.31-23.81,65.22-33.36,30.6-12.75,63.2-22.33,91.79-38.35,28.61-16.04,53.59-40.43,58.59-71.33,.19-1.18,.35-2.37,.49-3.55,4.22-37.44-20.42-74.16-42.46-107.83-16.97-25.9-33.27-53.61-44.47-81.82-13.62-34.45-18.91-69.5-9.75-103.55,3.46-12.86,9-25.49,15.69-37.49,9.99-17.97,21.28-34.66,26.87-53.33,6.76-22.56,4.14-47.03-6.05-69.32-9.35-20.46-25.28-39.31-46.92-51.54"/><path class="cls-3" d="M246.64,1056c-12.76-50.59-.12-103.73,28.93-145.99,29.06-42.25,73.53-74.09,123.1-95.38,31.15-13.38,64.57-22.91,93.88-39.21,29.31-16.3,55-41.18,60.1-72.77,6.38-39.53-19.97-78.28-43.12-113.84-38.08-58.48-71.48-127.29-51.39-189.88,10.01-31.18,32.67-57.83,39.23-89.94,9.1-44.51-17.92-95.05-62.89-117.66"/></g><g class="cls-2"><path class="cls-5" d="M1314.51,1065.2c-10.37-46.59,21.69-95.02,58.03-110.69,36.34-15.67,75.52-8.69,113.59-7.1,38.07,1.59,79.96-4.39,107.44-38.84,35.14-44.05,35.3-120.34,71.82-162.5,28.47-32.86,70.52-34.26,105.2-22.21,19.61,6.81,37.37,21.64,56.4,30.5,86.28,40.16,105.86,157.04,175.37,159.68,75.26,2.86,109.39-51.23,119.37-85.7,12.79-44.16,29.61-155.11-51.21-211.68-32.83-22.98-65.52-47.98-91.74-82.01-39.25-50.95-49.75-139.85-14.3-197.03,24.29-39.19,66.25-60.86,80.36-107.32,9.48-31.23,3.31-67.4-11.35-94.52-14.66-27.12-36.8-46.22-60.08-60.53"/><path class="cls-5" d="M1316.47,1067.2c-9.1-48.27,22.49-98.74,59.83-115.68,36.41-16.52,76.22-9.81,114.41-7.2,37.74,2.58,78.8-1.57,106.49-33.49,35.36-40.83,37.89-113.78,74.43-155.49,29.12-33.09,70.13-37.26,105.32-27.8,20.18,5.42,39.17,18.93,59.02,27.78,84.38,37.59,104.41,150.35,172.43,153.07,73.15,2.9,107.36-48.73,117.94-82.81,13.41-43.22,29.18-150.16-47.4-206.66-31.71-23.39-63.34-49.18-89.18-83.05-38.14-49.79-48.71-135.48-15.57-191.65,22.98-38.96,63.18-61.63,77.28-107.52,9.69-31.39,4.52-67.29-8.75-94.9-13.43-27.94-34.23-48.66-56.86-64.55"/><path class="cls-5" d="M1318.43,1069.21c-7.83-49.96,23.28-102.44,61.64-120.68,36.49-17.35,76.91-10.94,115.24-7.3,37.41,3.55,77.64,1.26,105.54-28.13,35.59-37.61,40.4-107.3,77.03-148.48,29.69-33.38,69.8-40.3,105.44-33.39,20.79,4.03,40.96,16.23,61.64,25.05,82.39,35.15,102.96,143.66,169.48,146.47,71.04,2.93,105.32-46.23,116.5-79.92,14.03-42.28,28.76-145.29-43.6-201.64-30.6-23.83-61.16-50.38-86.63-84.1-37.02-48.62-47.69-131.13-16.84-186.28,21.67-38.75,60.12-62.39,74.2-107.73,9.89-31.55,5.74-67.2-6.15-95.28s-31.66-51.11-53.63-68.57"/><path class="cls-5" d="M1320.39,1071.21c-6.56-51.64,24.08-106.13,63.44-125.67,36.58-18.17,77.59-12.08,116.06-7.41,37.08,4.51,76.48,4.08,104.58-22.77,35.81-34.39,42.96-100.77,79.63-141.47,30.3-33.64,69.51-43.38,105.57-38.98,21.42,2.62,42.74,13.54,64.26,22.33,80.34,32.84,101.51,136.97,166.53,139.86,68.93,2.96,103.28-43.73,115.06-77.02,14.64-41.33,28.36-140.51-39.8-196.63-29.5-24.29-58.89-51.66-84.07-85.14-35.77-47.55-46.68-126.81-18.11-180.91,20.36-38.56,57.06-63.16,71.12-107.93,10.1-31.71,6.97-67.13-3.56-95.67-10.93-29.65-29.09-53.56-50.41-72.6"/><path class="cls-5" d="M1322.35,1073.22c-5.3-53.33,24.89-109.8,65.24-130.67,36.67-18.96,78.27-13.24,116.88-7.51,36.74,5.45,75.33,6.9,103.63-17.42,36.04-31.18,45.53-94.23,82.23-134.46,30.92-33.9,69.27-46.51,105.69-44.57,22.08,1.18,44.51,10.85,66.88,19.61,78.22,30.64,100.06,130.28,163.59,133.26,66.82,3,101.22-41.23,113.63-74.13,15.23-40.39,27.97-135.81-36-191.61-28.41-24.78-56.68-52.88-81.51-86.18-34.62-46.41-45.68-122.51-19.38-175.53,19.04-38.39,53.89-63.96,68.04-108.13,10.22-31.9,8.22-67.07-.96-96.05-9.67-30.54-26.52-56-47.19-76.62"/><path class="cls-5" d="M1324.31,1075.22c-4.03-55.01,25.7-113.46,67.05-135.67,36.77-19.75,78.95-14.41,117.71-7.61,36.41,6.38,74.22,9.78,102.68-12.06,36.32-27.88,48.11-87.69,84.83-127.45,31.54-34.15,69.05-49.69,105.81-50.16,22.76-.29,46.26,8.17,69.5,16.89,76.05,28.54,98.61,123.59,160.64,126.65,64.71,3.03,99.16-38.73,112.19-71.24,15.81-39.45,27.61-131.21-32.19-186.6-27.33-25.31-54.47-54.1-78.96-87.22-33.47-45.27-44.71-118.24-20.66-170.16,17.72-38.23,50.8-64.73,64.96-108.34,10.41-32.07,9.49-67.03,1.64-96.44-8.39-31.43-23.95-58.45-43.96-80.64"/><path class="cls-5" d="M1326.26,1077.23c-2.76-56.7,26.51-117.1,68.85-140.66,36.87-20.52,79.63-15.59,118.53-7.71,36.07,7.3,73.06,12.62,101.73-6.7,36.55-24.64,50.69-81.15,87.43-120.44,32.17-34.4,68.84-52.93,105.93-55.74,23.44-1.78,48.01,5.5,72.12,14.17,73.83,26.54,97.15,116.9,157.7,120.05,62.6,3.06,97.09-36.23,110.76-68.34,16.38-38.51,27.29-126.71-28.39-181.58-26.25-25.87-52.26-55.32-76.4-88.26-32.32-44.12-43.77-114-21.93-164.79,16.38-38.09,47.73-65.51,61.88-108.54,10.6-32.23,10.77-67.01,4.23-96.82-7.09-32.35-21.38-60.9-40.74-84.66"/><path class="cls-5" d="M1328.22,1079.23c-1.49-58.38,27.33-120.74,70.65-145.66,36.98-21.27,80.31-16.78,119.35-7.82,35.73,8.2,71.9,15.45,100.77-1.35,36.78-21.41,53.27-74.6,90.03-113.43,32.8-34.65,68.64-56.21,106.06-61.33,24.13-3.3,49.75,2.85,74.75,11.45,71.56,24.63,95.7,110.21,154.75,113.44,60.49,3.1,95.02-33.73,109.32-65.45,16.94-37.57,27.02-122.31-24.59-176.56-25.17-26.46-50.06-56.53-73.84-89.3-31.18-42.97-42.84-109.78-23.2-159.41,15.03-37.97,44.65-66.28,58.8-108.74,10.8-32.4,12.08-66.99,6.83-97.2-5.77-33.27-18.81-63.34-37.52-88.69"/><path class="cls-5" d="M1330.18,1081.24c-.22-60.07,28.16-124.36,72.45-150.65,37.09-22.02,80.98-17.99,120.18-7.92,35.39,9.09,70.74,18.29,99.82,4.01,37-18.17,55.86-68.05,92.63-106.42,33.44-34.89,68.43-59.54,106.18-66.92,24.82-4.85,51.48,.21,77.37,8.73,69.27,22.8,94.25,103.52,151.8,106.83,58.38,3.13,92.93-31.23,107.89-62.56,17.49-36.64,26.8-118.01-20.79-171.55-24.08-27.09-47.86-57.75-71.28-90.35-30.05-41.81-41.95-105.59-24.47-154.04,13.67-37.87,41.58-67.05,55.72-108.95,10.99-32.57,13.4-66.98,9.43-97.59-4.44-34.2-16.24-65.79-34.3-92.71"/><path class="cls-5" d="M1332.14,1083.24c1.04-61.75,28.99-127.97,74.26-155.65,37.21-22.76,81.66-19.21,121-8.02,35.05,9.97,69.58,21.12,98.87,9.37,37.22-14.94,58.46-61.49,95.24-99.41,34.07-35.13,68.22-62.91,106.3-72.51,25.5-6.43,53.2-2.41,79.99,6.01,66.94,21.04,92.79,96.96,148.86,100.23,56.27,3.29,90.84-28.74,106.45-59.66,18.03-35.71,26.65-113.81-16.98-166.53-22.98-27.77-45.66-58.96-68.73-91.39-28.92-40.65-41.1-101.42-25.74-148.66,12.28-37.78,38.51-67.82,52.64-109.15,11.19-32.73,14.74-66.97,12.03-97.97-3.08-35.13-13.66-68.24-31.07-96.73"/><path class="cls-5" d="M1334.1,1085.25c2.31-63.44,29.83-131.57,76.06-160.65,37.34-23.49,82.35-20.44,121.82-8.13,34.72,10.83,68.42,23.95,97.91,14.72,37.44-11.71,61.05-54.93,97.84-92.4,34.72-35.36,68-66.31,106.42-78.1,26.18-8.03,54.92-5.01,82.61,3.28,64.59,19.36,91.34,90.27,145.91,93.62,54.16,3.32,88.73-26.25,105.01-56.77,18.56-34.78,26.56-109.72-13.18-161.52-21.86-28.49-43.47-60.17-66.17-92.43-27.79-39.49-40.28-97.27-27.01-143.29,10.87-37.72,35.45-68.59,49.56-109.35,11.39-32.89,16.1-66.96,14.62-98.35-1.7-36.06-11.09-70.68-27.85-100.76"/><path class="cls-5" d="M1336.06,1087.25c3.58-65.12,30.68-135.16,77.86-165.64,37.47-24.21,83.04-21.69,122.65-8.23,34.39,11.69,67.25,26.78,96.96,20.08,37.65-8.49,63.66-48.36,100.44-85.39,35.36-35.59,67.75-69.74,106.54-83.69,26.84-9.65,56.63-7.59,85.23,.56,62.21,17.74,89.89,83.59,142.96,87.02,52.05,3.36,86.62-23.76,103.58-53.88,19.07-33.86,26.57-105.72-9.38-156.5-20.71-29.25-41.28-61.38-63.61-93.47-26.67-38.32-39.5-93.15-28.28-137.92,9.44-37.67,32.38-69.35,46.49-109.56,11.6-33.06,17.48-66.96,17.22-98.74-.31-37-8.52-73.13-24.63-104.78"/><path class="cls-5" d="M1338.01,1089.26c4.85-66.81,31.53-138.74,79.67-170.64,37.6-24.92,83.73-22.95,123.47-8.33,34.07,12.53,66.08,29.6,96.01,25.44,37.86-5.27,66.26-41.79,103.04-78.37,36.01-35.82,67.49-73.18,106.67-89.28,27.48-11.29,58.32-10.14,87.85-2.16,59.82,16.18,88.43,76.9,140.02,80.41,49.94,3.4,84.49-21.28,102.14-50.98,19.57-32.95,26.67-101.82-5.57-151.49-19.51-30.05-39.09-62.58-61.06-94.51-25.56-37.15-38.76-89.04-29.55-132.54,7.97-37.63,29.32-70.12,43.41-109.76,11.8-33.22,18.87-66.95,19.82-99.12,1.11-37.93-5.95-75.58-21.4-108.8"/><path class="cls-5" d="M1339.97,1091.27c6.12-68.49,32.39-142.31,81.47-175.64,37.74-25.63,84.43-24.22,124.3-8.43,33.75,13.36,64.91,32.42,95.06,30.79,38.07-2.05,68.87-35.22,105.64-71.36s67.21-76.65,106.79-94.86c28.12-12.94,60.01-12.67,90.47-4.88,57.41,14.68,86.98,70.21,137.07,73.81,47.83,3.43,82.36-18.8,100.71-48.09,20.07-32.04,26.87-97.99-1.77-146.47-18.26-30.91-36.91-63.78-58.5-95.55-24.45-35.98-38.08-84.95-30.82-127.17,6.46-37.6,26.27-70.88,40.33-109.97,12.01-33.38,20.28-66.93,22.41-99.51,2.54-38.85-3.38-78.02-18.18-112.82"/><path class="cls-5" d="M1341.93,1093.27c7.38-70.18,33.26-145.87,83.27-180.63,37.89-26.33,85.13-25.5,125.12-8.54,33.43,14.19,63.74,35.23,94.1,36.15,38.28,1.16,71.49-28.64,108.24-64.35,37.32-36.27,66.91-80.13,106.91-100.45,28.74-14.6,61.7-15.15,93.09-7.6,55,13.23,85.53,63.52,134.13,67.2,45.72,3.46,80.22-16.33,99.27-45.2,20.55-31.14,27.18-94.22,2.03-141.45-16.93-31.8-34.73-64.98-55.94-96.59-23.34-34.8-37.44-80.86-32.09-121.8,4.91-37.58,23.21-71.65,37.25-110.17,12.22-33.54,21.7-66.91,25.01-99.89,3.99-39.77-.81-80.47-14.96-116.85"/><path class="cls-5" d="M1343.89,1095.28c8.65-71.86,34.13-149.42,85.08-185.63,38.04-27.03,85.84-26.8,125.94-8.64,33.12,15,62.57,38.04,93.15,41.5,38.5,4.36,74.11-22.06,110.84-57.34,37.99-36.48,66.59-83.61,107.03-106.04,29.34-16.27,63.37-17.6,95.71-10.32,52.57,11.82,84.08,56.83,131.18,60.59,43.61,3.49,78.07-13.87,97.83-42.3,21.03-30.24,27.61-90.51,5.83-136.44-15.52-32.73-32.56-66.17-53.38-97.64-22.24-33.62-36.85-76.78-33.37-116.42,3.31-37.57,20.16-72.41,34.17-110.37,12.43-33.7,23.13-66.89,27.61-100.27,5.46-40.68,1.76-82.92-11.73-120.87"/><path class="cls-5" d="M1345.85,1097.28c9.92-73.54,35.01-152.97,86.88-190.62,38.19-27.72,86.56-28.1,126.77-8.74,32.82,15.81,61.41,40.85,92.2,46.86,38.72,7.56,76.73-15.48,113.45-50.33,38.65-36.69,66.25-87.1,107.15-111.63,29.93-17.95,65.04-19.99,98.34-13.04,50.15,10.47,82.63,50.13,128.23,53.99,41.5,3.51,75.91-11.42,96.4-39.41,21.49-29.36,28.17-86.82,9.64-131.42-14-33.69-30.4-67.36-50.83-98.68-21.15-32.43-36.32-72.69-34.64-111.05s17.12-73.17,31.09-110.58c12.65-33.86,24.57-66.85,30.2-100.66,6.94-41.59,4.33-85.36-8.51-124.89"/><path class="cls-5" d="M1347.81,1099.29c11.19-75.23,35.9-156.51,88.68-195.62,38.35-28.41,87.29-29.42,127.59-8.84,32.53,16.61,60.25,43.65,91.24,52.22,38.94,10.76,79.35-8.89,116.05-43.32,39.32-36.9,65.9-90.6,107.28-117.22,30.52-19.63,66.7-22.34,100.96-15.76,47.72,9.15,81.18,43.43,125.29,47.38,39.39,3.53,73.74-8.98,94.96-36.52s28.85-83.14,13.44-126.41c-12.35-34.67-28.24-68.54-48.27-99.72s-35.84-68.58-35.91-105.67,14.07-73.93,28.01-110.78c12.87-34.02,26.01-66.82,32.8-101.04,8.43-42.48,6.9-87.81-5.29-128.92"/><path class="cls-5" d="M1349.76,1101.29c12.45-76.91,36.79-160.04,90.49-200.62,38.51-29.1,88.03-30.74,128.41-8.95,32.24,17.4,59.11,46.4,90.29,57.57,39.19,13.89,81.98-2.3,118.65-36.31,39.99-37.1,65.53-94.09,107.4-122.81,31.08-21.32,68.36-24.61,103.58-18.49,45.3,7.88,79.72,36.72,122.34,40.78,37.28,3.55,71.56-6.55,93.53-33.62,22.4-27.62,29.66-79.44,17.24-121.39-10.56-35.66-26.09-69.72-45.71-100.76-18.99-30.05-35.4-64.46-37.18-100.3-1.86-37.46,11.03-74.69,24.93-110.98,13.09-34.17,27.47-66.77,35.4-101.43,9.93-43.37,9.47-90.26-2.07-132.94"/><path class="cls-5" d="M1351.72,1103.3c13.72-78.6,37.7-163.57,92.29-205.61,38.68-29.78,88.78-32.08,129.24-9.05,31.96,18.19,57.95,49.22,89.34,62.93,39.41,17.11,84.61,4.3,121.25-29.3,40.67-37.29,65.15-97.59,107.52-128.4,31.64-23.01,70.01-26.81,106.2-21.21,42.9,6.65,78.28,29.94,119.39,34.17,35.18,3.5,69.38-4.13,92.09-30.73s30.59-75.68,21.04-116.38c-8.6-36.65-23.96-70.9-43.16-101.8-17.92-28.85-35.01-60.3-38.45-94.93-3.71-37.38,8.04-75.43,21.85-111.19,13.37-34.31,28.92-66.71,37.99-101.81,11.43-44.25,12.04-92.7,1.16-136.96"/><path class="cls-5" d="M1353.68,1105.3c14.99-80.28,38.67-167.01,94.09-210.61,38.89-30.41,89.54-33.42,130.06-9.15,31.68,18.97,56.8,52.04,88.38,68.29,39.64,20.33,87.27,10.94,123.85-22.29,41.39-37.44,64.76-101.09,107.64-133.98,32.19-24.7,71.66-28.93,108.82-23.93,40.5,5.45,76.83,23.26,116.45,27.57,33.07,3.53,67.19-1.72,90.66-27.84,23.29-25.92,31.64-71.83,24.85-111.36-6.46-37.59-21.83-72.06-40.6-102.84-16.86-27.65-34.66-56.1-39.72-89.55-5.63-37.25,4.98-76.2,18.77-111.39,13.57-34.47,30.39-66.65,40.59-102.19,12.95-45.12,14.61-95.15,4.38-140.98"/><path class="cls-5" d="M1355.64,1107.31c16.26-81.97,39.52-170.61,95.89-215.61,39.02-31.14,90.31-34.77,130.88-9.26,31.42,19.76,55.64,54.87,87.43,73.64,39.86,23.54,89.87,17.5,126.45-15.28,42.04-37.67,64.35-104.58,107.76-139.57,32.73-26.39,73.31-30.93,111.44-26.65,38.13,4.28,75.38,16.57,113.5,20.96,30.96,3.57,64.99,.68,89.22-24.94,23.73-25.08,32.79-67.86,28.65-106.34-4.14-38.48-19.72-73.22-38.04-103.89-15.8-26.44-34.35-51.85-40.99-84.18-7.62-37.08,1.92-76.96,15.69-111.59,13.78-34.63,31.85-66.58,43.19-102.58,14.48-45.97,17.18-97.6,7.6-145.01"/></g><g class="cls-2"><path class="cls-4" d="M1564.07,795.49c13.8-22.98,28.75-44.96,44.74-65.78,7.11-9.26,14.62-18.47,24.04-23.99,24.08-14.09,52.87-.41,75.56,16.71,20.89,15.77,40.22,34.53,57.44,55.78,17.06,21.05,32.37,44.84,53.04,60.52,20.67,15.69,49.04,21.49,69.02,4.55,11.88-10.08,19.04-26.81,21.75-44,2.71-17.19,1.38-34.93-.94-52.2-2.65-19.77-6.55-40.4-1.36-59.43,5.37-19.7,20.92-34.79,38.06-36.95,24.39-3.07,45.83,17.35,66.38,33.44,26.11,20.44,56.45,35.65,87.55,33.5,31.1-2.15,62.52-25.03,71.85-60.79"/><path class="cls-4" d="M1567.29,803.16c13.54-22.58,28.28-44.12,44.07-64.44,7.02-9.04,14.45-18.01,23.7-23.44,20.2-11.85,43.73-4.25,64.11,8.31,3.46,2.12,6.83,4.39,10.07,6.73,20.67,14.87,39.86,32.74,57.04,53.08,17.02,20.16,32.28,43.14,52.78,58.28,11.76,8.69,25.78,14.57,39.49,15.37,11.26,.65,22.38-2.19,31.73-9.84,2.12-1.73,4.1-3.67,5.94-5.78,8.91-10.26,14.37-24.61,16.8-39.3,.95-5.71,1.48-11.47,1.7-17.25,.48-12.14-.33-24.39-1.51-36.39-1.94-20.4-4.49-41.32,1.39-60.31s20.8-33.56,37.58-35.78c22.65-3,42.77,14.2,61.96,28.7,1.01,.76,2.02,1.52,3.02,2.26,25.48,18.97,54.83,32.71,84.69,29.83,29.86-2.87,59.84-25.58,68.51-60.47"/><path class="cls-4" d="M1570.51,810.84c13.28-22.19,27.81-43.28,43.41-63.11,6.94-8.82,14.28-17.55,23.36-22.89,19.81-11.64,42.83-4.7,62.87,7.06,3.41,1.99,6.73,4.11,9.94,6.31,20.45,13.98,39.5,30.95,56.64,50.39,16.98,19.27,32.21,41.43,52.52,56.04,12.17,8.76,26.53,14.89,40.64,15.96,11.56,.87,23.09-1.8,32.8-9.46,2.21-1.74,4.27-3.69,6.19-5.85,9.29-10.43,14.91-25.19,17.54-40.33,1.02-5.87,1.62-11.8,1.94-17.73,.67-12.46,.13-25.06-.61-37.36-1.27-21.02-2.46-42.23,4.13-61.19s20.68-32.33,37.09-34.62c22.13-3.08,41.86,13.03,60.63,26.39,.99,.7,1.97,1.4,2.95,2.08,24.89,17.43,53.2,29.77,81.84,26.16,28.63-3.6,57.15-26.13,65.17-60.16"/><path class="cls-4" d="M1573.73,818.51c13.02-21.8,27.33-42.44,42.75-61.77,6.86-8.59,14.11-17.09,23.02-22.34,19.41-11.43,41.89-5.11,61.62,5.81,3.36,1.86,6.64,3.84,9.81,5.89,20.22,13.08,39.15,29.16,56.24,47.7,16.94,18.37,32.15,39.71,52.26,53.8,12.59,8.82,27.29,15.22,41.79,16.56,11.87,1.09,23.8-1.4,33.86-9.08,2.29-1.74,4.45-3.72,6.45-5.92,9.68-10.6,15.45-25.77,18.27-41.35,1.09-6.03,1.77-12.12,2.18-18.2,.86-12.79,.62-25.73,.28-38.32-.57-21.64-.44-43.11,6.88-62.06,6.7-17.35,20.55-31.1,36.61-33.46,21.61-3.16,40.95,11.87,59.31,24.09,.97,.64,1.93,1.27,2.89,1.9,24.28,15.93,51.58,26.83,78.98,22.48,27.39-4.32,54.46-26.67,61.83-59.84"/><path class="cls-4" d="M1576.96,826.18c12.75-21.4,26.86-41.6,42.09-60.43,6.77-8.37,13.94-16.62,22.68-21.79,19.02-11.23,40.98-5.55,60.38,4.56,3.31,1.72,6.55,3.56,9.69,5.48,20,12.19,38.79,27.36,55.84,45,16.9,17.48,32.1,37.97,52,51.56,13.01,8.89,28.04,15.54,42.94,17.15,12.18,1.31,24.51-1.01,34.92-8.7,2.38-1.75,4.62-3.75,6.71-5.98,10.06-10.78,15.99-26.35,19.01-42.38,1.16-6.19,1.92-12.45,2.42-18.68,1.06-13.12,1.1-26.4,1.18-39.29,.13-22.27,1.54-43.98,9.62-62.94,7.06-16.57,20.43-29.87,36.12-32.29,21.1-3.24,40.04,10.7,57.98,21.78,.94,.58,1.89,1.15,2.82,1.72,23.66,14.43,49.96,23.89,76.13,18.81,26.16-5.04,51.77-27.22,58.49-59.52"/><path class="cls-4" d="M1580.18,833.86c12.49-21.01,26.39-40.76,41.43-59.09,6.69-8.15,13.76-16.16,22.34-21.24,18.63-11.02,40.07-5.99,59.13,3.32,3.26,1.59,6.46,3.28,9.56,5.06,19.78,11.29,38.43,25.57,55.44,42.31,16.85,16.59,32.06,36.22,51.74,49.32,13.44,8.95,28.8,15.86,44.08,17.75,12.49,1.53,25.22-.61,35.98-8.32,2.47-1.76,4.8-3.78,6.97-6.05,10.45-10.95,16.53-26.92,19.74-43.4,1.23-6.35,2.07-12.77,2.66-19.15,1.25-13.44,1.59-27.07,2.07-40.26,.83-22.89,3.5-44.84,12.37-63.82,7.38-15.79,20.31-28.64,35.64-31.13,20.58-3.32,39.13,9.53,56.65,19.48,.92,.52,1.84,1.03,2.76,1.54,23.04,12.93,48.34,20.95,73.27,15.14,24.92-5.77,49.08-27.76,55.15-59.21"/><path class="cls-4" d="M1583.4,841.53c12.23-20.62,25.92-39.92,40.76-57.75,6.61-7.93,13.59-15.7,22-20.69,18.23-10.82,39.16-6.43,57.89,2.07,3.21,1.46,6.37,3.01,9.43,4.64,19.55,10.4,38.07,23.78,55.04,39.62,16.81,15.69,32.03,34.46,51.48,47.08,13.88,9,29.55,16.19,45.23,18.34,12.8,1.75,25.93-.22,37.04-7.93,2.56-1.76,4.97-3.8,7.23-6.11,10.83-11.12,17.07-27.5,20.48-44.43,1.3-6.51,2.22-13.1,2.9-19.63,1.44-13.77,2.08-27.74,2.97-41.22,1.54-23.52,5.43-45.69,15.12-64.7,7.65-15.01,20.19-27.4,35.15-29.97,20.06-3.4,38.22,8.36,55.32,17.17,.9,.46,1.8,.91,2.69,1.36,22.42,11.42,46.71,18.01,70.41,11.47,23.69-6.49,46.39-28.31,51.8-58.89"/><path class="cls-4" d="M1586.62,849.21c11.97-20.22,25.45-39.09,40.1-56.41,6.52-7.71,13.42-15.24,21.65-20.14,17.84-10.61,38.26-6.87,56.65,.82,3.16,1.32,6.27,2.73,9.3,4.23,19.33,9.5,37.71,21.99,54.63,36.92,16.77,14.8,32.01,32.69,51.22,44.84,14.31,9.05,30.31,16.51,46.38,18.94,13.11,1.97,26.64,.17,38.11-7.55,2.65-1.77,5.15-3.83,7.48-6.18,11.22-11.29,17.61-28.08,21.21-45.45,1.38-6.67,2.36-13.42,3.14-20.11,1.64-14.1,2.58-28.41,3.86-42.19,2.25-24.15,7.33-46.54,17.86-65.58,7.88-14.25,20.07-26.17,34.67-28.8,19.54-3.48,37.31,7.19,53.99,14.87,.88,.4,1.76,.79,2.62,1.18,21.79,9.92,45.09,15.07,67.56,7.8,22.45-7.21,43.7-28.85,48.46-58.58"/><path class="cls-4" d="M1589.84,856.88c11.7-19.83,24.97-38.25,39.44-55.07,6.44-7.49,13.25-14.78,21.31-19.59,17.45-10.4,37.35-7.32,55.4-.43,3.11,1.19,6.18,2.45,9.17,3.81,19.11,8.61,37.36,20.2,54.23,34.23,16.73,13.91,31.99,30.91,50.96,42.6,14.75,9.09,31.07,16.83,47.52,19.53,13.41,2.19,27.35,.57,39.17-7.17,2.73-1.78,5.32-3.86,7.74-6.25,11.6-11.46,18.15-28.66,21.95-46.47,1.45-6.83,2.51-13.75,3.38-20.58,1.83-14.42,3.07-29.08,4.75-43.16,2.96-24.78,9.19-47.39,20.61-66.46,8.08-13.5,19.95-24.94,34.18-27.64,19.02-3.56,36.4,6.02,52.66,12.56,.86,.34,1.71,.67,2.56,1.01,21.15,8.42,43.47,12.13,64.7,4.13,21.21-7.94,41.01-29.4,45.12-58.26"/><path class="cls-4" d="M1593.06,864.56c11.44-19.44,24.5-37.41,38.78-53.73,6.36-7.27,13.07-14.31,20.97-19.04,17.05-10.2,36.45-7.76,54.16-1.68,3.06,1.05,6.09,2.17,9.04,3.39,18.88,7.71,37,18.4,53.83,31.54,16.69,13.02,31.99,29.12,50.7,40.36,15.2,9.13,31.82,17.16,48.67,20.13,13.72,2.41,28.07,.96,40.23-6.79,2.82-1.79,5.5-3.89,8-6.31,11.99-11.63,18.69-29.24,22.68-47.5,1.52-6.99,2.66-14.07,3.62-21.06,2.02-14.75,3.57-29.75,5.65-44.12,3.68-25.4,11.02-48.25,23.35-67.34,8.25-12.76,19.83-23.71,33.7-26.47,18.5-3.64,35.49,4.85,51.33,10.26,.83,.28,1.67,.55,2.49,.83,20.52,6.92,41.84,9.19,61.84,.45,19.98-8.66,38.32-29.94,41.78-57.95"/><path class="cls-4" d="M1596.28,872.23c11.18-19.04,24.03-36.57,38.12-52.4,6.27-7.05,12.9-13.85,20.63-18.49,16.66-9.99,35.55-8.21,52.91-2.93,3.01,.92,6,1.9,8.91,2.97,18.66,6.82,36.64,16.61,53.43,28.84,16.65,12.12,31.98,27.31,50.44,38.12,15.65,9.16,32.58,17.48,49.82,20.72,14.03,2.63,28.78,1.36,41.29-6.41,2.91-1.79,5.67-3.91,8.26-6.38,12.37-11.8,19.23-29.82,23.41-48.52,1.59-7.15,2.81-14.4,3.85-21.54,2.22-15.08,4.06-30.42,6.54-45.09,4.4-26.03,12.81-49.13,26.1-68.22,8.38-12.03,19.71-22.48,33.22-25.31,17.99-3.72,34.58,3.68,50.01,7.96,.81,.22,1.62,.43,2.42,.65,19.87,5.43,40.22,6.25,58.99-3.22,18.74-9.38,35.63-30.49,38.44-57.63"/><path class="cls-4" d="M1599.5,879.91c10.92-18.65,23.56-35.73,37.46-51.06,6.19-6.82,12.73-13.39,20.29-17.94,16.27-9.79,34.64-8.66,51.67-4.18,2.97,.78,5.9,1.62,8.78,2.56,18.44,5.92,36.28,14.82,53.03,26.15,16.61,11.23,31.99,25.5,50.18,35.88,16.1,9.19,33.33,17.8,50.96,21.32,14.34,2.85,29.49,1.75,42.35-6.03,3-1.8,5.85-3.94,8.52-6.44,12.76-11.97,19.78-30.4,24.15-49.55,1.66-7.31,2.96-14.72,4.09-22.01,2.41-15.4,4.56-31.09,7.44-46.06,5.12-26.66,14.56-50.03,28.84-69.1,8.48-11.32,19.59-21.25,32.73-24.15,17.47-3.8,33.66,2.52,48.68,5.65,.79,.16,1.58,.31,2.36,.47,19.22,3.94,38.6,3.31,56.13-6.89,17.51-10.11,32.94-31.03,35.1-57.32"/><path class="cls-4" d="M1602.72,887.58c10.65-18.26,23.09-34.89,36.79-49.72,6.11-6.6,12.56-12.93,19.95-17.39,15.87-9.58,33.74-9.11,50.43-5.43,2.92,.64,5.81,1.34,8.65,2.14,18.21,5.03,35.93,13.03,52.63,23.46,16.56,10.34,32,23.68,49.92,33.64,16.56,9.2,34.09,18.13,52.11,21.92,14.65,3.07,30.2,2.14,43.41-5.64,3.09-1.81,6.02-3.97,8.77-6.51,13.14-12.14,20.32-30.98,24.88-50.57,1.74-7.47,3.11-15.05,4.33-22.49,2.6-15.73,5.06-31.76,8.33-47.02,5.84-27.28,16.27-50.96,31.59-69.98,8.57-10.63,19.47-20.02,32.25-22.98,16.95-3.88,32.75,1.35,47.35,3.35,.77,.11,1.53,.19,2.29,.29,18.57,2.46,36.97,.38,53.28-10.56,16.27-10.83,30.26-31.58,31.76-57"/><path class="cls-4" d="M1605.94,895.26c10.39-17.86,22.61-34.05,36.13-48.38,6.02-6.38,12.39-12.46,19.61-16.84,15.48-9.37,32.85-9.57,49.18-6.68,2.87,.51,5.72,1.07,8.52,1.72,17.99,4.13,35.57,11.23,52.23,20.76,16.52,9.44,32.01,21.86,49.66,31.4,17.03,9.21,34.84,18.45,53.26,22.51,14.95,3.28,30.91,2.54,44.48-5.26,3.17-1.81,6.2-4,9.03-6.57,13.53-12.31,20.86-31.56,25.62-51.6,1.81-7.63,3.25-15.37,4.57-22.97,2.79-16.06,5.56-32.43,9.23-47.99,6.57-27.91,17.94-51.93,34.33-70.85,8.63-9.96,19.34-18.79,31.76-21.82,16.43-3.97,31.84,.18,46.02,1.04,.75,.05,1.49,.07,2.22,.11,17.91,.99,35.35-2.56,50.42-14.23,15.04-11.55,27.57-32.13,28.41-56.68"/><path class="cls-4" d="M1609.16,902.93c10.13-17.47,22.14-33.21,35.47-47.04,5.94-6.16,12.21-12,19.26-16.29,15.09-9.17,31.95-10.03,47.94-7.93,2.82,.37,5.63,.79,8.39,1.31,17.77,3.24,35.21,9.44,51.83,18.07,16.48,8.55,32.03,20.02,49.4,29.16,17.5,9.2,35.6,18.77,54.41,23.11,15.26,3.5,31.62,2.93,45.54-4.88,3.26-1.82,6.37-4.03,9.29-6.64,13.92-12.49,21.4-32.14,26.35-52.62,1.88-7.79,3.4-15.7,4.81-23.44,2.99-16.38,6.07-33.1,10.12-48.96,7.29-28.53,19.57-52.94,37.08-71.73,8.67-9.31,19.22-17.56,31.28-20.66,15.91-4.05,30.93-.99,44.69-1.26,.72-.01,1.44-.05,2.16-.07,17.24-.47,33.73-5.5,47.56-17.9,13.8-12.27,24.88-32.67,25.07-56.37"/><path class="cls-4" d="M1612.38,910.61c9.87-17.08,21.67-32.38,34.81-45.7,5.86-5.94,12.04-11.54,18.92-15.74,14.69-8.96,31.05-10.49,46.69-9.18,2.78,.23,5.54,.51,8.26,.89,17.54,2.34,34.85,7.65,51.43,15.38,16.44,7.66,32.05,18.18,49.14,26.91,17.97,9.19,36.36,19.1,55.55,23.7,15.57,3.72,32.33,3.33,46.6-4.5,3.35-1.83,6.55-4.05,9.55-6.71,14.3-12.66,21.94-32.72,27.09-53.65,1.95-7.95,3.55-16.02,5.05-23.92,3.18-16.71,6.57-33.76,11.01-49.92,8.02-29.15,21.16-54,39.82-72.61,8.7-8.68,19.1-16.33,30.79-19.49,15.4-4.13,30.02-2.16,43.36-3.57,.7-.07,1.4-.17,2.09-.25,16.58-1.92,32.1-8.44,44.71-21.58,12.56-13,22.19-33.22,21.73-56.05"/><path class="cls-4" d="M1615.6,918.28c9.6-16.68,21.2-31.54,34.15-44.36,5.78-5.72,11.87-11.08,18.58-15.19,14.3-8.76,30.15-10.96,45.45-10.43,2.73,.09,5.44,.24,8.13,.47,17.32,1.45,34.49,5.86,51.03,12.68,16.4,6.77,32.07,16.32,48.88,24.67,18.45,9.17,37.11,19.42,56.7,24.3,15.88,3.94,33.04,3.72,47.66-4.12,3.44-1.83,6.72-4.08,9.81-6.77,14.69-12.83,22.48-33.3,27.82-54.67,2.02-8.11,3.7-16.35,5.29-24.39,3.37-17.04,7.07-34.43,11.91-50.89,8.75-29.77,22.71-55.13,42.57-73.49,8.73-8.07,18.98-15.1,30.31-18.33,14.88-4.21,29.11-3.33,42.03-5.87,.68-.13,1.35-.29,2.02-.43,15.93-3.35,30.48-11.38,41.85-25.25,11.33-13.72,19.5-33.76,18.39-55.74"/><path class="cls-4" d="M1618.82,925.96c9.34-16.29,20.73-30.7,33.48-43.02,5.69-5.5,11.7-10.61,18.24-14.64,13.91-8.55,29.25-11.43,44.2-11.68,2.68-.05,5.35-.04,8,.05,17.1,.55,34.14,4.06,50.63,9.99,16.36,5.87,32.1,14.47,48.62,22.43,18.93,9.13,37.87,19.74,57.85,24.89,16.19,4.16,33.76,4.11,48.72-3.74,3.52-1.84,6.9-4.11,10.06-6.84,15.07-13,23.02-33.87,28.56-55.69,2.09-8.27,3.85-16.67,5.53-24.87,3.57-17.36,7.58-35.1,12.8-51.86,9.48-30.4,24.21-56.33,45.31-74.37,8.75-7.48,18.86-13.87,29.82-17.17,14.36-4.29,28.2-4.5,40.71-8.18,.66-.19,1.31-.41,1.96-.61,15.28-4.77,28.86-14.32,38.99-28.92,10.09-14.44,16.81-34.31,15.05-55.42"/><path class="cls-4" d="M1622.04,933.63c9.08-15.9,20.26-29.86,32.82-41.68,5.61-5.28,11.52-10.15,17.9-14.09,13.51-8.34,28.35-11.9,42.96-12.93,2.63-.19,5.26-.32,7.87-.36,16.87-.34,33.78,2.27,50.23,7.3,16.32,4.98,32.12,12.6,48.36,20.19,19.42,9.08,38.62,20.07,58.99,25.49,16.5,4.38,34.47,4.51,49.79-3.35,3.61-1.85,7.07-4.14,10.32-6.9,15.46-13.17,23.56-34.45,29.29-56.72,2.17-8.43,3.99-17,5.77-25.35,3.76-17.69,8.11-35.75,13.7-52.82,10.26-31,25.69-57.61,48.06-75.25,8.77-6.91,18.74-12.64,29.34-16,13.84-4.37,27.29-5.67,39.38-10.48,.64-.25,1.26-.52,1.89-.79,14.64-6.19,27.23-17.26,36.14-32.59,8.86-15.17,14.12-34.85,11.71-55.11"/><path class="cls-4" d="M1625.26,941.31c8.82-15.5,19.78-29.02,32.16-40.35,5.53-5.05,11.35-9.69,17.56-13.54,13.12-8.14,27.45-12.38,41.72-14.18,2.58-.33,5.17-.59,7.74-.78,16.65-1.24,33.42,.48,49.83,4.6,16.27,4.09,32.15,10.73,48.1,17.95,19.91,9.02,39.38,20.39,60.14,26.08,16.8,4.6,35.18,4.9,50.85-2.97,3.7-1.86,7.25-4.16,10.58-6.97,15.84-13.34,24.1-35.03,30.03-57.74,2.24-8.59,4.14-17.32,6.01-25.82,3.95-18.02,8.6-36.42,14.59-53.79,10.98-31.62,27.13-58.97,50.81-76.13,8.79-6.37,18.62-11.4,28.86-14.84,13.32-4.45,26.38-6.84,38.05-12.78,.61-.31,1.22-.64,1.82-.97,14.02-7.59,25.61-20.2,33.28-36.26,7.62-15.89,11.43-35.4,8.37-54.79"/><path class="cls-4" d="M1628.49,948.98c8.56-15.11,19.31-28.18,31.5-39.01,5.44-4.83,11.18-9.23,17.22-12.99,12.73-7.93,26.54-12.86,40.47-15.43,2.54-.47,5.07-.87,7.61-1.2,16.43-2.13,33.06-1.31,49.43,1.91,16.23,3.2,32.18,8.85,47.84,15.71,20.4,8.94,40.13,20.72,61.29,26.68,17.11,4.82,35.89,5.29,51.91-2.59,3.79-1.86,7.42-4.19,10.84-7.04,16.23-13.51,24.65-35.61,30.76-58.77,2.31-8.75,4.29-17.65,6.25-26.3,4.15-18.34,9.1-37.09,15.49-54.76,11.7-32.25,28.54-60.43,53.55-77.01,8.82-5.85,18.5-10.17,28.37-13.68,12.81-4.53,25.47-8,36.72-15.09,.59-.37,1.18-.76,1.76-1.15,13.41-9,23.99-23.14,30.43-39.94,6.39-16.61,8.74-35.94,5.02-54.48"/><path class="cls-4" d="M1631.71,956.66c19.78-35.11,52.39-58.31,86.94-66.79,34.55-8.47,70.83-3,104.09,11.07,20.9,8.84,40.89,21.04,62.43,27.27,21.54,6.23,45.78,5.75,64.07-9.31,22.88-18.85,30.51-54.44,37.98-86.57,12.28-52.83,31.91-109.01,72.68-133.61,20.3-12.25,44.07-15.32,63.28-29.9,26.63-20.22,39.92-62.78,30.94-99.09"/></g><g class="cls-2"><path class="cls-4" d="M113.18,17.03c-15.57,41.06-28.98,83.21-40.16,126.16-4.97,19.09-9.54,38.83-8.11,58.75,3.64,50.93,44.16,87.5,83.59,111.26,36.32,21.89,74.87,38.8,114.58,50.26,39.35,11.36,80.45,17.65,116.49,39.24,36.04,21.58,66.87,63.74,63.66,110.17-1.91,27.62-15.68,52.75-33.76,70.9-18.08,18.16-40.21,30.1-62.63,40.03-25.66,11.38-53.39,21.39-71.55,45.1-18.8,24.55-23.55,62.2-11.64,92.18,16.95,42.65,59.25,61.73,95.67,82.8,46.26,26.77,89.9,64.67,113.61,117.66,23.71,52.99,23.13,123.02-11.35,166.88"/><path class="cls-4" d="M124.99,16.23c-15.5,40.74-28.57,82.69-39.17,125.41-4.71,18.99-8.98,38.59-7.49,58.36,1.12,14.78,5.28,28.37,11.58,40.82,15.21,30.07,42.85,53.44,70.1,70.61,35.47,22.33,73.26,39.77,112.27,51.85,38.48,11.8,78.72,18.67,114.04,40.21,11.1,6.77,21.7,15.49,30.94,25.68,20.22,22.28,33.97,51.63,32.25,82.97-1.5,27.16-14.93,51.54-31.71,70.21-14.42,16.04-32.04,28.45-50.53,38.59-4.5,2.46-9.03,4.84-13.56,7.16-26.49,13.54-54.19,26.53-71.68,52.38s-21.8,63.38-10.22,93.89c15.75,41.51,56.27,60.27,90.71,81.03,43.73,26.41,84.8,63.34,106.75,114.48,21.88,51.22,20.47,118.49-13.3,160.53"/><path class="cls-4" d="M136.81,15.42c-15.43,40.41-28.15,82.17-38.18,124.66-4.46,18.88-8.43,38.35-6.86,57.96,1.17,14.64,5.27,28.15,11.42,40.56,14.87,29.97,41.73,53.49,68.34,71.04,34.62,22.77,71.62,40.85,109.96,53.44,37.58,12.34,76.99,19.68,111.6,41.19,10.89,6.78,21.29,15.41,30.39,25.47,19.9,21.99,33.57,50.84,32.33,81.66-1.09,26.69-14.12,50.45-29.67,69.51-14.32,17.55-32.37,31.71-51.53,43.24-4.66,2.8-9.34,5.53-14.02,8.22-27.32,15.7-55.02,31.59-71.8,59.65-16.03,26.79-20.04,64.55-8.81,95.6,14.59,40.35,53.29,58.81,85.75,79.25,41.21,26.05,79.69,62.01,99.9,111.31,20.05,49.46,17.81,113.96-15.26,154.17"/><path class="cls-4" d="M148.62,14.62c-15.35,40.09-27.73,81.66-37.19,123.91-4.21,18.78-7.87,38.12-6.23,57.57,1.22,14.51,5.26,27.94,11.27,40.3,14.53,29.87,40.6,53.55,66.58,71.46,33.77,23.21,69.99,41.87,107.65,55.03,36.7,12.83,75.26,20.69,109.15,42.16,10.68,6.78,20.88,15.34,29.84,25.26,19.58,21.7,33.17,50.05,32.41,80.35-.67,26.23-13.24,49.47-27.62,68.81-14.22,19.13-32.71,34.97-52.53,47.89-4.81,3.14-9.66,6.22-14.48,9.29-28.14,17.86-55.86,36.59-71.93,66.92-14.72,27.79-18.28,65.71-7.4,97.32,13.48,39.16,50.31,57.36,80.8,77.48,38.68,25.69,74.73,60.63,93.04,108.14s15.16,109.43-17.22,147.81"/><path class="cls-4" d="M160.43,13.81c-15.28,39.77-27.31,81.14-36.2,123.16-3.95,18.68-7.32,37.88-5.6,57.17,1.28,14.37,5.24,27.72,11.12,40.04,14.19,29.77,39.48,53.61,64.82,71.89,32.91,23.65,68.36,42.88,105.34,56.62s73.54,21.7,106.71,43.14c10.47,6.78,20.48,15.26,29.29,25.05,19.26,21.41,32.77,49.26,32.49,79.04-.26,25.76-12.3,48.56-25.57,68.12-14.1,20.77-33.04,38.23-53.52,52.54-4.97,3.47-9.97,6.91-14.93,10.35-28.97,20.02-56.75,41.53-72.05,74.19-13.46,28.73-16.51,66.85-5.99,99.03,12.4,37.95,47.33,55.9,75.84,75.71,36.16,25.33,69.68,59.29,86.18,104.97,16.58,45.87,12.5,104.9-19.18,141.45"/><path class="cls-4" d="M172.24,13.01c-15.21,39.45-26.89,80.62-35.21,122.41-3.7,18.57-6.77,37.64-4.97,56.78,1.33,14.24,5.23,27.5,10.97,39.78,13.85,29.67,38.36,53.66,63.07,72.32,32.06,24.09,66.74,43.89,103.03,58.21,34.93,13.78,71.81,22.71,104.26,44.11,10.26,6.79,20.07,15.18,28.73,24.84,18.94,21.12,32.36,48.47,32.57,77.73,.15,25.3-11.28,47.73-23.52,67.42-13.97,22.47-33.38,41.49-54.52,57.19-5.13,3.81-10.29,7.61-15.39,11.42-29.79,22.19-57.68,46.43-72.18,81.46-12.26,29.64-14.73,67.97-4.58,100.74,11.37,36.72,44.4,54.37,70.88,73.93,33.7,24.89,64.62,57.95,79.33,101.8s9.84,100.36-21.14,135.09"/><path class="cls-4" d="M184.05,12.21c-15.14,39.13-26.47,80.1-34.22,121.66-3.44,18.47-6.21,37.4-4.34,56.39,1.38,14.1,5.22,27.28,10.82,39.52,13.51,29.57,37.23,53.72,61.31,72.74,31.21,24.54,65.11,44.89,100.73,59.8s70.08,23.73,101.81,45.08c10.05,6.79,19.67,15.11,28.18,24.64,18.62,20.83,31.96,47.68,32.64,76.42,.56,24.83-10.21,46.96-21.48,66.72-13.8,24.21-33.71,44.75-55.52,61.84-5.29,4.14-10.6,8.3-15.85,12.48-30.62,24.35-58.66,51.29-72.3,88.73-11.12,30.51-12.93,69.09-3.17,102.46,10.37,35.47,41.43,52.9,65.93,72.16,31.19,24.52,59.56,56.62,72.47,98.62s7.18,95.83-23.1,128.73"/><path class="cls-4" d="M195.86,11.4c-15.07,38.8-26.05,79.58-33.23,120.91-3.19,18.37-5.66,37.17-3.71,55.99,1.44,13.97,5.21,27.06,10.66,39.26,13.18,29.47,36.11,53.78,59.55,73.17,30.36,24.98,63.48,45.89,98.42,61.39,33.17,14.72,68.35,24.74,99.37,46.06,9.84,6.79,19.26,15.03,27.63,24.43,18.29,20.54,31.56,46.89,32.72,75.11,.97,24.37-9.09,46.23-19.43,66.03-13.58,26-34.05,48.02-56.52,66.48-5.45,4.48-10.91,8.99-16.31,13.55-31.44,26.51-59.69,56.13-72.43,96-10.01,31.35-11.12,70.19-1.76,104.17,9.42,34.2,38.46,51.44,60.97,70.39,28.68,24.15,54.5,55.28,65.62,95.45s4.52,91.3-25.05,122.37"/><path class="cls-4" d="M207.68,10.6c-15,38.48-25.63,79.06-32.24,120.16-2.94,18.26-5.1,36.93-3.08,55.6,1.49,13.83,5.2,26.84,10.51,39.01,12.84,29.37,34.98,53.83,57.79,73.6,29.51,25.42,61.86,46.89,96.11,62.98,32.29,15.17,66.62,25.75,96.92,47.03,9.63,6.8,18.85,14.95,27.08,24.22,17.97,20.25,31.16,46.1,32.8,73.8,1.38,23.9-7.91,45.53-17.38,65.33-13.31,27.83-34.38,51.28-57.52,71.13-5.61,4.81-11.23,9.68-16.77,14.61-32.27,28.67-60.78,60.95-72.55,103.27-8.95,32.19-9.29,71.28-.35,105.88,8.51,32.92,35.49,49.97,56.01,68.61,26.17,23.78,49.44,53.96,58.76,92.28s1.86,86.77-27.01,116.02"/><path class="cls-4" d="M219.49,9.79c-14.93,38.16-25.22,78.55-31.25,119.42-2.68,18.16-4.55,36.69-2.45,55.2,1.54,13.7,5.18,26.62,10.36,38.75,12.5,29.27,33.86,53.89,56.03,74.02,28.66,25.86,60.23,47.87,93.8,64.57,31.41,15.63,64.89,26.76,94.48,48.01,9.42,6.8,18.45,14.87,26.52,24.01,17.65,19.96,30.76,45.31,32.88,72.49,1.79,23.44-6.68,44.86-15.33,64.63-12.99,29.68-34.72,54.54-58.51,75.78-5.77,5.15-11.54,10.37-17.23,15.68-33.09,30.83-61.92,65.76-72.68,110.54-7.93,33.01-7.43,72.36,1.07,107.59,7.63,31.62,32.52,48.51,51.06,66.84,23.67,23.41,44.37,52.63,51.9,89.11s-.8,82.23-28.97,109.66"/><path class="cls-4" d="M231.3,8.99c-14.86,37.84-24.8,78.03-30.26,118.67-2.43,18.06-3.99,36.46-1.82,54.81,1.6,13.56,5.17,26.41,10.21,38.49,12.16,29.18,32.73,53.95,54.27,74.45,27.81,26.3,58.61,48.85,91.49,66.16,30.54,16.07,63.16,27.77,92.03,48.98,9.21,6.8,18.04,14.8,25.97,23.8,17.33,19.67,30.36,44.52,32.96,71.18,2.2,22.97-5.41,44.2-13.29,63.94-12.6,31.57-35.05,57.8-59.51,80.43-5.93,5.48-11.86,11.06-17.69,16.75-33.92,33-63.1,70.56-72.8,117.81-6.94,33.83-5.56,73.43,2.48,109.31,6.79,30.31,29.56,47.04,46.1,65.07,21.16,23.05,39.3,51.32,45.05,85.93,5.85,35.3-3.46,77.7-30.93,103.3"/><path class="cls-4" d="M243.11,8.18c-14.79,37.52-24.38,77.51-29.27,117.92-2.17,17.95-3.44,36.22-1.19,54.42,1.65,13.43,5.16,26.19,10.06,38.23,11.82,29.08,31.61,54,52.51,74.88,26.95,26.75,56.99,49.83,89.18,67.75,29.66,16.51,61.44,28.79,89.59,49.96,9,6.81,17.63,14.72,25.42,23.59,17.01,19.38,29.96,43.73,33.04,69.87,2.61,22.51-4.11,43.56-11.24,63.24-12.13,33.48-35.39,61.06-60.51,85.08-6.09,5.82-12.17,11.75-18.15,17.81-34.74,35.16-64.34,75.36-72.93,125.09-5.99,34.65-3.65,74.48,3.89,111.02,5.98,28.99,26.59,45.59,41.14,63.29,18.65,22.69,34.23,50,38.19,82.76,4.05,33.55-6.12,73.17-32.89,96.94"/><path class="cls-4" d="M254.92,7.38c-14.72,37.19-23.96,76.99-28.28,117.17-1.92,17.85-2.89,35.98-.56,54.02,1.71,13.29,5.15,25.97,9.9,37.97,11.48,28.98,30.49,54.06,50.75,75.3,26.1,27.19,55.38,50.8,86.88,69.34,28.79,16.95,59.71,29.8,87.14,50.93,8.79,6.81,17.23,14.64,24.87,23.38,16.69,19.1,29.56,42.94,33.12,68.56,3.02,22.04-2.77,42.93-9.19,62.54-11.59,35.4-35.72,64.32-61.51,89.73-6.25,6.15-12.49,12.44-18.61,18.88-35.57,37.32-65.62,80.16-73.05,132.36-5.05,35.47-1.71,75.53,5.3,112.73,5.21,27.66,23.62,44.13,36.19,61.52,16.14,22.34,29.15,48.7,31.33,79.59,2.25,31.81-8.78,68.64-34.85,90.58"/><path class="cls-4" d="M266.74,6.58c-14.65,36.87-23.54,76.47-27.28,116.42-1.66,17.75-2.33,35.75,.07,53.63,1.76,13.16,5.14,25.75,9.75,37.71,11.14,28.88,29.36,54.12,48.99,75.73,25.25,27.63,53.76,51.76,84.57,70.93,27.93,17.38,57.98,30.81,84.69,51.91,8.58,6.81,16.82,14.56,24.32,23.17,16.37,18.81,29.16,42.15,33.2,67.25,3.43,21.58-1.4,42.29-7.15,61.85-10.98,37.34-36.05,67.58-62.5,94.38-6.41,6.49-12.8,13.14-19.07,19.94-36.39,39.48-66.94,84.97-73.18,139.63-4.14,36.3,.28,76.57,6.71,114.44,4.47,26.32,20.65,42.68,31.23,59.75,13.63,21.99,24.06,47.39,24.48,76.42s-11.44,64.1-36.8,84.22"/><path class="cls-4" d="M278.55,5.77c-14.58,36.55-23.12,75.95-26.29,115.67-1.41,17.64-1.78,35.51,.7,53.23,1.81,13.02,5.13,25.53,9.6,37.45,10.81,28.78,28.24,54.17,47.23,76.15,24.4,28.07,52.15,52.72,82.26,72.52,27.06,17.8,56.25,31.82,82.25,52.88,8.37,6.81,16.42,14.49,23.76,22.96,16.05,18.52,28.76,41.36,33.28,65.94,3.85,21.11,0,41.65-5.1,61.15-10.28,39.29-36.39,70.85-63.5,99.03-6.57,6.82-13.12,13.83-19.53,21.01-37.22,41.64-68.3,89.78-73.31,146.9-3.25,37.14,2.31,77.6,8.12,116.16,3.76,24.98,17.68,41.23,26.27,57.97,11.12,21.65,18.95,46.1,17.62,73.25-1.39,28.35-14.1,59.57-38.76,77.87"/><path class="cls-4" d="M290.36,4.97c-14.51,36.23-22.7,75.43-25.3,114.92-1.16,17.54-1.22,35.27,1.33,52.84,1.87,12.89,5.11,25.31,9.45,37.19,10.47,28.68,27.11,54.23,45.47,76.58,23.55,28.51,50.55,53.67,79.95,74.11,26.2,18.22,54.52,32.83,79.8,53.86,8.16,6.82,16.01,14.41,23.21,22.76,15.73,18.23,28.36,40.57,33.36,64.63,4.26,20.65,1.43,41.01-3.05,60.45-9.49,41.24-36.72,74.11-64.5,103.68-6.73,7.16-13.43,14.52-19.99,22.07-38.04,43.81-69.7,94.6-73.43,154.17-2.38,37.98,4.4,78.63,9.53,117.87,3.09,23.64,14.7,39.79,21.32,56.2,8.6,21.31,13.83,44.8,10.76,70.07-3.24,26.62-16.76,55.04-40.72,71.51"/><path class="cls-4" d="M302.17,4.16c-14.44,35.9-22.28,74.92-24.31,114.17-.9,17.44-.67,35.03,1.96,52.44,1.92,12.75,5.1,25.09,9.3,36.93,10.13,28.58,25.99,54.29,43.71,77.01,22.7,28.96,48.95,54.61,77.64,75.7,25.35,18.63,52.79,33.84,77.36,54.83,7.94,6.82,15.6,14.33,22.66,22.55,15.41,17.94,27.96,39.78,33.44,63.32,4.67,20.18,2.87,40.36-1,59.76-8.62,43.18-37.06,77.37-65.5,108.33-6.89,7.5-13.75,15.21-20.44,23.14-38.87,45.97-71.13,99.43-73.56,161.44-1.52,38.84,6.57,79.65,10.94,119.58,2.44,22.3,11.71,38.35,16.36,54.43,6.07,20.97,8.7,43.51,3.91,66.9-5.1,24.89-19.42,50.51-42.68,65.15"/><path class="cls-4" d="M313.98,3.36c-14.37,35.58-21.86,74.4-23.32,113.42-.65,17.33-.12,34.8,2.59,52.05,1.97,12.62,5.09,24.88,9.15,36.67,9.79,28.48,24.86,54.34,41.95,77.43,21.85,29.4,47.36,55.55,75.34,77.29,24.5,19.04,51.06,34.86,74.91,55.81,7.73,6.82,15.2,14.25,22.11,22.34,15.09,17.65,27.55,38.99,33.51,62.01,5.08,19.72,4.33,39.69,1.04,59.06-7.67,45.12-37.39,80.63-66.5,112.98-7.05,7.83-14.06,15.9-20.9,24.2-39.7,48.13-72.59,104.28-73.68,168.71-.67,39.7,8.81,80.67,12.36,121.3,1.83,20.96,8.72,36.92,11.4,52.65,3.53,20.64,3.54,42.2-2.95,63.73-6.98,23.16-22.08,45.97-44.64,58.79"/><path class="cls-4" d="M325.79,2.56c-14.3,35.26-21.45,73.88-22.33,112.67-.39,17.23,.44,34.56,3.22,51.66,2.03,12.49,5.08,24.66,8.99,36.41,9.45,28.38,23.74,54.4,40.19,77.86,20.99,29.84,45.78,56.49,73.03,78.88,23.66,19.45,49.34,35.87,72.47,56.78,7.52,6.83,14.79,14.18,21.55,22.13,14.77,17.36,27.15,38.2,33.59,60.7,5.49,19.25,5.82,39.01,3.09,58.36-6.63,47.05-37.73,83.89-67.49,117.63-7.21,8.17-14.38,16.59-21.36,25.27-40.52,50.29-74.08,109.13-73.81,175.98,.17,40.57,11.16,81.7,13.77,123.01,1.24,19.62,5.71,35.48,6.45,50.88,.97,20.31-1.64,40.89-9.81,60.56-8.89,21.41-24.74,41.44-46.6,52.43"/><path class="cls-4" d="M337.61,1.75c-14.23,34.94-21.03,73.36-21.34,111.92-.14,17.12,.99,34.32,3.85,51.26,2.08,12.35,5.07,24.44,8.84,36.15,9.11,28.28,22.62,54.46,38.43,78.29,20.14,30.28,44.2,57.41,70.72,80.47,22.82,19.85,47.61,36.88,70.02,57.76,7.31,6.83,14.38,14.1,21,21.92,14.45,17.07,26.75,37.41,33.67,59.39,5.9,18.79,7.31,38.32,5.14,57.67-5.5,48.97-38.06,87.15-68.49,122.28-7.37,8.5-14.69,17.28-21.82,26.33-41.35,52.45-75.6,114-73.93,183.25,1,41.45,13.63,82.73,15.18,124.72,.67,18.3,2.7,34.03,1.49,49.11-1.6,19.97-6.84,39.55-16.66,57.39-10.82,19.64-27.4,36.91-48.55,46.07"/><path class="cls-4" d="M349.42,.95c-14.16,34.62-20.61,72.84-20.35,111.17,.11,17.02,1.55,34.09,4.48,50.87,2.13,12.22,5.06,24.22,8.69,35.9,8.77,28.19,21.49,54.51,36.67,78.71,19.29,30.72,42.64,58.34,68.41,82.06,21.99,20.24,45.88,37.89,67.57,58.73,7.1,6.83,13.98,14.02,20.45,21.71,14.12,16.78,26.35,36.62,33.75,58.08,6.31,18.32,8.82,37.61,7.19,56.97-4.29,50.87-38.4,90.41-69.49,126.93-7.53,8.84-15.01,17.97-22.28,27.4-42.17,54.62-77.13,118.88-74.06,190.52,1.82,42.34,16.25,83.78,16.59,126.43,.13,16.99-.32,32.57-3.47,47.33-4.18,19.61-12.04,38.18-23.52,54.21-12.76,17.83-30.06,32.38-50.51,39.71"/><path class="cls-4" d="M361.23,.14c-24.89,60.59-24.85,132.83-5.71,196.54,19.14,63.71,56.25,119.16,101.01,162.79,28.13,27.42,59.45,50.65,85.03,81.21,25.58,30.55,45.47,70.9,43.06,113.04-3.01,52.74-38.73,93.67-70.49,131.58-52.22,62.33-102.2,139.46-96.92,226.26,2.63,43.23,19.06,84.86,18,128.15-1.47,60.02-40.67,115.84-91.27,129.96"/></g></g></g></g></svg>