<?xml version="1.0" encoding="UTF-8"?><svg xmlns="http://www.w3.org/2000/svg" xmlns:xlink="http://www.w3.org/1999/xlink" viewBox="0 0 53.02 31.98"><defs><style>.f{fill:url(#d);}.g{fill:url(#e);}</style><linearGradient id="d" x1="0" y1="15.99" x2="49.99" y2="15.99" gradientTransform="matrix(1, 0, 0, 1, 0, 0)" gradientUnits="userSpaceOnUse"><stop offset="0" stop-color="#ef00b7"/><stop offset="1" stop-color="#570df7"/></linearGradient><linearGradient id="e" x1="-112.09" y1="-26.43" x2="-108.3" y2="-26.43" gradientTransform="translate(110.35 126.54) rotate(45)" xlink:href="#d"/></defs><g id="a"/><g id="b"><g id="c"><g><path class="f" d="M47.65,5.5l.29,.76c-1.65,.76-3.53,1.54-5.63,2.34l-.59,.22c.09-.52,.18-1.15,.27-1.89,.07-.59,.14-1.12,.2-1.58,.09-.64,.14-1.16,.14-1.56,0-.91-.44-1.36-1.31-1.36-1.41,0-3.08,.62-5,1.85-2.58,1.65-3.87,3.56-3.87,5.73,0,.79,.34,1.3,1.02,1.55,.68,.25,2.14,.37,4.38,.37h.29c.05-.48,.07-.8,.07-.98,0-1.26-.18-2.37-.54-3.32,1.5,.36,2.25,1.66,2.25,3.92v.38l3.53-.07c1.64,0,2.79,.12,3.47,.36,2.24,.79,3.35,2.41,3.35,4.86,0,3.3-1.25,6.46-3.74,9.49-2.97,3.61-6.59,5.42-10.87,5.42-3.14,0-5.52-1.26-7.16-3.77-3.72,2.32-7.66,3.48-11.82,3.48-3.2,0-6.11-.71-8.73-2.14C2.56,26.76,0,21.99,0,15.24,0,10.96,1.15,7.46,3.44,4.72,5.74,1.99,8.67,.62,12.24,.62s6.45,1.11,8.96,3.32c1.4,1.22,2.52,2.71,3.38,4.47,.86,1.76,1.83,4.57,2.93,8.44l1.13,4.01c.62,2.17,1.17,3.81,1.67,4.93,1.49-.88,2.97-2.47,4.47-4.77,1.49-2.3,2.41-4.43,2.76-6.37l-1.04,.02c-2.51,0-4.27-.2-5.3-.61-1.03-.41-1.54-1.12-1.54-2.13,0-1.63,.91-3.5,2.72-5.59,1.46-1.68,3.17-3,5.15-3.96,1.98-.96,4.54-1.7,7.68-2.24l.77-.13-.07,.36c-.15,.67-.27,1.26-.36,1.78l-.36,2.09c-.11,.67-.16,1.1-.16,1.29,0,.43,.18,.65,.54,.65,.25,0,.52-.05,.79-.16,.6-.24,1.04-.41,1.31-.51ZM27.84,27.41c-.72-1.57-1.25-2.99-1.6-4.23l-1.8-6.55c-1.43-5.21-3.14-9-5.15-11.35-2.01-2.35-4.52-3.53-7.52-3.53s-5.59,1.04-7.35,3.12c-1.76,2.08-2.64,4.96-2.64,8.65,0,1.92,.36,3.86,1.07,5.82,.71,1.96,1.68,3.66,2.89,5.1,1.53,1.81,3.38,3.22,5.56,4.23,2.18,1.01,4.46,1.52,6.84,1.52,3.2,0,6.43-.92,9.7-2.76Zm11.39-12.81c-.5,2.08-1.55,4.26-3.17,6.53s-3.42,4.11-5.4,5.5c.74,1.56,1.55,2.66,2.43,3.29,.89,.63,2.04,.95,3.47,.95,2.9,0,5.46-1.18,7.69-3.54s3.34-5.07,3.34-8.13c0-1.72-.48-2.92-1.45-3.58-.97-.66-2.7-.99-5.21-.99h-1.13l-.56-.02Z"/><circle class="g" cx="51.13" cy="29.94" r="1.9"/></g></g></g></svg>