<svg xmlns="http://www.w3.org/2000/svg" xmlns:xlink="http://www.w3.org/1999/xlink" viewBox="0 0 33.43 13.92"><defs><style>.cls-1{fill:url(#New_Gradient_Swatch);}.cls-2{fill:url(#New_Gradient_Swatch-2);}.cls-3{fill:url(#New_Gradient_Swatch-3);}.cls-4{fill:url(#New_Gradient_Swatch-4);}</style><linearGradient id="New_Gradient_Swatch" y1="6.63" x2="8.66" y2="6.63" gradientUnits="userSpaceOnUse"><stop offset="0" stop-color="#570df8"/><stop offset="0.07" stop-color="#5613f8"/><stop offset="0.18" stop-color="#5325f8"/><stop offset="0.29" stop-color="#4e42f8"/><stop offset="0.42" stop-color="#486af8"/><stop offset="0.56" stop-color="#3f9df8"/><stop offset="0.64" stop-color="#3abff8"/></linearGradient><linearGradient id="New_Gradient_Swatch-2" x1="0.03" y1="12.31" x2="4.17" y2="12.31" xlink:href="#New_Gradient_Swatch"/><linearGradient id="New_Gradient_Swatch-3" x1="0.37" y1="12.37" x2="7.91" y2="12.37" xlink:href="#New_Gradient_Swatch"/><linearGradient id="New_Gradient_Swatch-4" x1="5.09" y1="6.93" x2="14.65" y2="6.93" xlink:href="#New_Gradient_Swatch"/></defs><g id="Layer_2" data-name="Layer 2"><g id="Layer_10" data-name="Layer 10"><path class="cls-1" d="M8.66,3.06,6.88,6.13,4.17,10.82H1.38A1.34,1.34,0,0,0,0,12.17v.08a1.68,1.68,0,0,0,.34,1,1.55,1.55,0,0,1-.16-1.78L5.09,3,6.84,0l.08.05Z"/><path class="cls-2" d="M4.17,10.82,2.9,13a1.55,1.55,0,0,1-2.12.57,1.49,1.49,0,0,1-.41-.33h0a1.68,1.68,0,0,1-.34-1v-.08a1.34,1.34,0,0,1,1.35-1.35Z"/><path class="cls-3" d="M7.91,11.1a2.83,2.83,0,0,1-2.83,2.82H1.7a1.67,1.67,0,0,1-1.33-.65,1.49,1.49,0,0,0,.41.33A1.55,1.55,0,0,0,2.9,13l1.27-2.21H7.63A.28.28,0,0,1,7.91,11.1Z"/><path class="cls-4" d="M14.65,13.44l0,0a3,3,0,0,1-4.15-1.12L6.88,6.13,5.09,3,6.84,0l.08.05,1.74,3,4.44,7.69c.12.22.25.42.36.63a4.48,4.48,0,0,1,.33.57c.11.18.2.33.29.5a1.69,1.69,0,0,0,.24.41l.18.31Z"/><path d="M18,12.87,18,12.25a1.7,1.7,0,0,1-1.41.76,1.91,1.91,0,0,1-1.79-2.09,1.92,1.92,0,0,1,1.79-2.09A1.72,1.72,0,0,1,18,9.59L18,9h.69v3.89Zm-2.46-1.94a1.28,1.28,0,0,0,1.18,1.45A1.3,1.3,0,0,0,18,10.93a1.3,1.3,0,0,0-1.23-1.46C16.14,9.47,15.55,10,15.55,10.93Z"/><path d="M22.88,12.87v-2.3c0-.74-.29-1.07-.85-1.07a1.25,1.25,0,0,0-1.19,1.14v2.23h-.78V9h.7l0,.67a1.83,1.83,0,0,1,1.48-.82c1,0,1.38.73,1.38,1.7v2.34Z"/><path d="M27.5,12.87l-1.7-2v2H25V6h.78v4.61L27.5,9h.89l-1.8,1.73,1.88,2.16Z"/><path d="M29.34,7.66V6.74h.78v.92Zm0,5.21V9h.78v3.89Z"/><path d="M32.7,9.53v3.34h-.79V9.53h-.74V9h.74V7.67h.79V9h.73v.55Z"/></g></g></svg>