<?xml version="1.0" encoding="UTF-8"?><svg id="Layer_2" xmlns="http://www.w3.org/2000/svg" xmlns:xlink="http://www.w3.org/1999/xlink" viewBox="0 0 33.65 21"><defs><style>.cls-1{fill:url(#radial-gradient);}.cls-2{fill:url(#linear-gradient);}</style><radialGradient id="radial-gradient" cx="16.41" cy="10.5" fx="16.41" fy="10.5" r="13.78" gradientUnits="userSpaceOnUse"><stop offset=".25" stop-color="#f471b5"/><stop offset=".34" stop-color="#ee73b6"/><stop offset=".45" stop-color="#df79bc"/><stop offset=".58" stop-color="#c783c5"/><stop offset=".71" stop-color="#a492d1"/><stop offset=".84" stop-color="#77a5e1"/><stop offset=".98" stop-color="#42bbf5"/><stop offset="1" stop-color="#3abff8"/></radialGradient><linearGradient id="linear-gradient" x1="-120.14" y1="-124.91" x2="-117.65" y2="-124.91" gradientTransform="translate(-44.47 128.41) rotate(90) scale(.92 .62)" gradientUnits="userSpaceOnUse"><stop offset="0" stop-color="#f471b5"/><stop offset="1" stop-color="#3abff8"/></linearGradient></defs><g id="Layer_11"><g><path class="cls-1" d="M31.29,3.61l.19,.5c-1.08,.5-2.32,1.01-3.69,1.54l-.38,.15c.06-.34,.12-.76,.18-1.24,.05-.39,.09-.74,.13-1.04,.06-.42,.09-.76,.09-1.02,0-.6-.29-.89-.86-.89-.93,0-2.02,.4-3.28,1.21-1.69,1.08-2.54,2.34-2.54,3.76,0,.52,.22,.86,.67,1.02,.45,.16,1.41,.24,2.87,.24h.19c.03-.31,.04-.53,.04-.64,0-.83-.12-1.56-.35-2.18,.99,.23,1.48,1.09,1.48,2.58v.25l2.32-.04c1.07,0,1.83,.08,2.28,.23,1.47,.52,2.2,1.58,2.2,3.19,0,2.17-.82,4.24-2.45,6.23-1.95,2.37-4.33,3.56-7.14,3.56-2.06,0-3.63-.82-4.7-2.47-2.44,1.52-5.03,2.28-7.76,2.28-2.1,0-4.01-.47-5.73-1.4C1.68,17.57,0,14.44,0,10.01,0,7.2,.75,4.9,2.26,3.1,3.77,1.31,5.7,.41,8.04,.41s4.24,.73,5.88,2.18c.92,.8,1.66,1.78,2.22,2.93,.56,1.16,1.2,3,1.92,5.54l.74,2.63c.4,1.42,.77,2.5,1.09,3.23,.98-.58,1.95-1.62,2.93-3.13,.98-1.51,1.58-2.91,1.81-4.19h-.68c-1.65,.01-2.81-.12-3.48-.39-.68-.27-1.01-.73-1.01-1.4,0-1.07,.6-2.3,1.79-3.67,.96-1.1,2.08-1.97,3.38-2.6,1.3-.63,2.98-1.12,5.04-1.47l.5-.09-.04,.23c-.1,.44-.18,.83-.24,1.17l-.24,1.38c-.07,.44-.1,.72-.1,.85,0,.28,.12,.42,.35,.42,.17,0,.34-.03,.52-.1,.39-.16,.68-.27,.86-.34Zm-13.01,14.39c-.47-1.03-.82-1.96-1.05-2.78l-1.18-4.3c-.94-3.42-2.06-5.91-3.38-7.46-1.32-1.55-2.97-2.32-4.94-2.32s-3.67,.68-4.83,2.05c-1.16,1.37-1.74,3.26-1.74,5.68,0,1.26,.23,2.53,.7,3.82,.47,1.29,1.1,2.41,1.9,3.35,1.01,1.19,2.22,2.12,3.65,2.78,1.43,.66,2.93,1,4.49,1,2.1,0,4.22-.6,6.37-1.81Zm7.48-8.41c-.33,1.37-1.02,2.8-2.08,4.29s-2.25,2.7-3.55,3.61c.48,1.02,1.01,1.74,1.6,2.16,.58,.41,1.34,.62,2.28,.62,1.9,0,3.58-.78,5.05-2.33s2.19-3.33,2.19-5.34c0-1.13-.32-1.91-.95-2.35-.64-.43-1.78-.65-3.42-.65h-1.11Z"/><ellipse class="cls-2" cx="32.68" cy="19.09" rx=".77" ry="1.14" transform="translate(-3.93 28.7) rotate(-45)"/></g></g></svg>