<?xml version="1.0" encoding="UTF-8"?><svg xmlns="http://www.w3.org/2000/svg" viewBox="0 0 53.36 44.06"><defs><style>.d{fill:#37cdbe;}.e{fill:#333;}</style></defs><g id="a"/><g id="b"><g id="c"><g><path class="d" d="M47.65,5.5l.29,.76c-1.65,.76-3.53,1.54-5.63,2.34l-.59,.22c.09-.52,.18-1.15,.27-1.89,.07-.59,.14-1.12,.2-1.58,.09-.64,.14-1.16,.14-1.56,0-.91-.44-1.36-1.31-1.36-1.41,0-3.08,.62-5,1.85-2.58,1.65-3.87,3.56-3.87,5.73,0,.79,.34,1.3,1.02,1.55,.68,.25,2.14,.37,4.38,.37h.29c.05-.48,.07-.8,.07-.98,0-1.26-.18-2.37-.54-3.32,1.5,.36,2.25,1.66,2.25,3.92v.38l3.53-.07c1.64,0,2.79,.12,3.47,.36,2.24,.79,3.35,2.41,3.35,4.86,0,3.3-1.25,6.46-3.74,9.49-2.97,3.61-6.59,5.42-10.87,5.42-3.14,0-5.52-1.26-7.16-3.77-3.72,2.32-7.66,3.48-11.82,3.48-3.2,0-6.11-.71-8.73-2.14C2.56,26.76,0,21.99,0,15.24,0,10.96,1.15,7.46,3.44,4.72,5.74,1.99,8.67,.62,12.24,.62s6.45,1.11,8.96,3.32c1.4,1.22,2.52,2.71,3.38,4.47,.86,1.76,1.83,4.57,2.93,8.44l1.13,4.01c.62,2.17,1.17,3.81,1.67,4.93,1.49-.88,2.97-2.47,4.47-4.77,1.49-2.3,2.41-4.43,2.76-6.37l-1.04,.02c-2.51,0-4.27-.2-5.3-.61-1.03-.41-1.54-1.12-1.54-2.13,0-1.63,.91-3.5,2.72-5.59,1.46-1.68,3.17-3,5.15-3.96,1.98-.96,4.54-1.7,7.68-2.24l.77-.13-.07,.36c-.15,.67-.27,1.26-.36,1.78l-.36,2.09c-.11,.67-.16,1.1-.16,1.29,0,.43,.18,.65,.54,.65,.25,0,.52-.05,.79-.16,.6-.24,1.04-.41,1.31-.51ZM27.84,27.41c-.72-1.57-1.25-2.99-1.6-4.23l-1.8-6.55c-1.43-5.21-3.14-9-5.15-11.35-2.01-2.35-4.52-3.53-7.52-3.53s-5.59,1.04-7.35,3.12c-1.76,2.08-2.64,4.96-2.64,8.65,0,1.92,.36,3.86,1.07,5.82,.71,1.96,1.68,3.66,2.89,5.1,1.53,1.81,3.38,3.22,5.56,4.23,2.18,1.01,4.46,1.52,6.84,1.52,3.2,0,6.43-.92,9.7-2.76Zm11.39-12.81c-.5,2.08-1.55,4.26-3.17,6.53s-3.42,4.11-5.4,5.5c.74,1.56,1.55,2.66,2.43,3.29,.89,.63,2.04,.95,3.47,.95,2.9,0,5.46-1.18,7.69-3.54s3.34-5.07,3.34-8.13c0-1.72-.48-2.92-1.45-3.58-.97-.66-2.7-.99-5.21-.99h-1.13l-.56-.02Z"/><circle class="d" cx="51.6" cy="32.4" r="1.77"/><g><path class="e" d="M4.85,43.81l-.06-.89c-.45,.74-1.33,1.1-2.05,1.1-1.41,0-2.58-1.24-2.58-3.03s1.16-3.01,2.58-3.01c.68,0,1.6,.36,2.05,1.1l.06-.89h1.01v5.62h-1.01Zm-3.55-2.8c0,1.38,.85,2.09,1.71,2.09,.79,0,1.78-.63,1.78-2.09s-.99-2.11-1.78-2.11c-.85,0-1.71,.72-1.71,2.11Z"/><path class="e" d="M11.89,43.81v-3.31c0-1.07-.42-1.55-1.23-1.55-.76,0-1.72,.71-1.72,1.65v3.21h-1.13v-5.62h1.01l.08,.97c.36-.63,1.26-1.19,2.14-1.19,1.43,0,1.99,1.05,1.99,2.45v3.38h-1.13Z"/><path class="e" d="M18.56,43.81l-2.45-2.9v2.9h-1.13v-9.88h1.13v6.67l2.45-2.41h1.29l-2.61,2.5,2.72,3.11h-1.4Z"/><path class="e" d="M21.22,36.29v-1.32h1.13v1.32h-1.13Zm0,7.53v-5.62h1.13v5.62h-1.13Z"/><path class="e" d="M26.07,38.99v4.83h-1.13v-4.83h-1.07v-.79h1.07v-1.89h1.13v1.89h1.06v.79h-1.06Z"/><path class="e" d="M32.89,44.03c-1.1,0-1.91-.56-2.02-.63l.22-.91c.36,.23,1.02,.64,1.82,.64,.62,0,1.01-.26,1.01-.81,0-.41-.29-.69-1.16-.91-1.16-.3-1.63-.96-1.63-1.73,0-.89,.54-1.71,1.89-1.71,.87,0,1.61,.48,1.69,.53l-.2,.84c-.4-.26-.96-.51-1.49-.51-.65,0-.9,.3-.9,.71s.34,.64,.98,.81c1.26,.31,1.82,.96,1.82,1.83,0,1.1-.73,1.84-2.02,1.84Z"/><path class="e" d="M39.22,44.06c-1.72,0-3.06-1.4-3.06-3.06s1.33-3.05,3.06-3.05,3.06,1.38,3.06,3.05-1.33,3.06-3.06,3.06Zm0-5.17c-1.1,0-1.92,.87-1.92,2.11s.82,2.13,1.92,2.13,1.92-.89,1.92-2.13-.81-2.11-1.92-2.11Z"/><path class="e" d="M47.94,43.81v-3.31c0-1.07-.42-1.55-1.23-1.55-.76,0-1.72,.71-1.72,1.65v3.21h-1.13v-5.62h1.01l.08,.97c.36-.63,1.26-1.19,2.14-1.19,1.43,0,1.99,1.05,1.99,2.45v3.38h-1.13Z"/><path class="e" d="M51.03,43.81v-5.62h1.13v5.62h-1.13Z"/></g></g></g></g></svg>