<?xml version="1.0" encoding="UTF-8"?><svg xmlns="http://www.w3.org/2000/svg" viewBox="0 0 69.31 15.84"><defs><style>.d{fill:#fff;}.e{fill:#37cdbe;}</style></defs><g id="a"/><g id="b"><g id="c"><g><g><path class="d" d="M28.98,14.63l-.05-.76c-.38,.63-1.14,.94-1.75,.94-1.2,0-2.2-1.05-2.2-2.58s.99-2.57,2.2-2.57c.58,0,1.36,.31,1.75,.94l.05-.76h.86v4.79h-.86Zm-3.03-2.39c0,1.18,.73,1.78,1.45,1.78,.67,0,1.52-.53,1.52-1.78s-.85-1.8-1.52-1.8c-.73,0-1.45,.62-1.45,1.8Z"/><path class="d" d="M34.99,14.63v-2.82c0-.91-.36-1.32-1.04-1.32-.65,0-1.47,.6-1.47,1.4v2.74h-.97v-4.79h.86l.07,.83c.3-.53,1.07-1.01,1.82-1.01,1.22,0,1.69,.9,1.69,2.09v2.88h-.97Z"/><path class="d" d="M40.67,14.63l-2.09-2.47v2.47h-.97V6.21h.97v5.69l2.09-2.05h1.1l-2.22,2.13,2.31,2.65h-1.19Z"/><path class="d" d="M42.94,8.21v-1.12h.97v1.12h-.97Zm0,6.42v-4.79h.97v4.79h-.97Z"/><path class="d" d="M47.08,10.52v4.11h-.97v-4.11h-.91v-.67h.91v-1.61h.97v1.61h.9v.67h-.9Z"/><path class="d" d="M52.88,14.81c-.94,0-1.63-.48-1.72-.53l.18-.77c.3,.2,.87,.55,1.55,.55,.53,0,.86-.22,.86-.69,0-.35-.25-.59-.99-.77-.99-.25-1.39-.81-1.39-1.47,0-.76,.46-1.46,1.61-1.46,.74,0,1.38,.41,1.44,.45l-.17,.72c-.34-.22-.82-.43-1.27-.43-.56,0-.77,.25-.77,.6s.29,.55,.83,.69c1.07,.27,1.55,.81,1.55,1.56,0,.94-.62,1.57-1.72,1.57Z"/><path class="d" d="M58.28,14.84c-1.47,0-2.61-1.19-2.61-2.61s1.14-2.6,2.61-2.6,2.61,1.18,2.61,2.6-1.14,2.61-2.61,2.61Zm0-4.41c-.94,0-1.64,.74-1.64,1.8s.7,1.81,1.64,1.81,1.64-.76,1.64-1.81-.69-1.8-1.64-1.8Z"/><path class="d" d="M65.71,14.63v-2.82c0-.91-.36-1.32-1.04-1.32-.65,0-1.47,.6-1.47,1.4v2.74h-.97v-4.79h.86l.07,.83c.3-.53,1.07-1.01,1.82-1.01,1.22,0,1.69,.9,1.69,2.09v2.88h-.97Z"/><path class="d" d="M68.34,8.21v-1.12h.97v1.12h-.97Zm0,6.42v-4.79h.97v4.79h-.97Z"/></g><path class="e" d="M23.6,2.73l.14,.38c-.82,.38-1.75,.76-2.79,1.16l-.29,.11c.04-.26,.09-.57,.13-.94,.04-.29,.07-.56,.1-.78,.04-.32,.07-.57,.07-.77,0-.45-.22-.67-.65-.67-.7,0-1.52,.31-2.48,.92-1.28,.82-1.92,1.76-1.92,2.84,0,.39,.17,.65,.51,.77,.34,.12,1.06,.18,2.17,.18h.14c.02-.24,.03-.4,.03-.49,0-.63-.09-1.17-.27-1.64,.74,.18,1.11,.82,1.11,1.94v.19l1.75-.03c.81,0,1.38,.06,1.72,.18,1.11,.39,1.66,1.19,1.66,2.41,0,1.63-.62,3.2-1.85,4.7-1.47,1.79-3.27,2.68-5.39,2.68-1.55,0-2.74-.62-3.55-1.87-1.84,1.15-3.79,1.72-5.85,1.72-1.58,0-3.03-.35-4.33-1.06C1.27,13.26,0,10.89,0,7.55,0,5.43,.57,3.69,1.71,2.34,2.84,.99,4.3,.31,6.07,.31s3.2,.55,4.44,1.64c.69,.6,1.25,1.34,1.67,2.21,.42,.87,.91,2.27,1.45,4.18l.56,1.99c.3,1.07,.58,1.89,.83,2.44,.74-.43,1.47-1.22,2.21-2.36,.74-1.14,1.19-2.19,1.37-3.16h-.51c-1.24,.01-2.12-.09-2.63-.29-.51-.2-.76-.55-.76-1.05,0-.81,.45-1.73,1.35-2.77,.72-.83,1.57-1.48,2.55-1.96,.98-.47,2.25-.84,3.8-1.11l.38-.07-.03,.18c-.07,.33-.13,.63-.18,.88l-.18,1.04c-.05,.33-.08,.54-.08,.64,0,.21,.09,.32,.27,.32,.13,0,.26-.03,.39-.08,.3-.12,.51-.2,.65-.25ZM13.79,13.58c-.36-.78-.62-1.48-.79-2.1l-.89-3.25c-.71-2.58-1.56-4.46-2.55-5.62-1-1.17-2.24-1.75-3.72-1.75s-2.77,.52-3.64,1.55c-.87,1.03-1.31,2.46-1.31,4.28,0,.95,.18,1.91,.53,2.88,.35,.97,.83,1.81,1.43,2.53,.76,.9,1.68,1.6,2.75,2.1,1.08,.5,2.21,.75,3.39,.75,1.58,0,3.18-.46,4.81-1.37Zm5.64-6.35c-.25,1.03-.77,2.11-1.57,3.23s-1.69,2.04-2.68,2.73c.36,.77,.77,1.32,1.2,1.63,.44,.31,1.01,.47,1.72,.47,1.43,0,2.7-.58,3.81-1.76s1.66-2.51,1.66-4.03c0-.85-.24-1.44-.72-1.77-.48-.33-1.34-.49-2.58-.49h-.84Z"/></g></g></g></svg>