<?xml version="1.0" encoding="UTF-8"?><svg xmlns="http://www.w3.org/2000/svg" viewBox="0 0 57.37 21.99"><defs><style>.d{fill:#fff;}.e{fill:#f000b8;}.f{fill:#37cdbe;}</style></defs><g id="a"/><g id="b"><g id="c"><g><g><path class="d" d="M28.81,14.98c1.31,0,1.92,.63,2.09,1.05v-.87h1.43v5.89h-1.43v-.82c-.17,.38-.94,.99-2.09,.99-1.74,0-2.84-1.15-2.84-3.1s1.13-3.14,2.84-3.14Zm.4,5.09c.98,0,1.78-.65,1.78-1.95s-.77-1.99-1.76-1.99-1.74,.66-1.74,1.97,.75,1.97,1.73,1.97Z"/><path class="d" d="M36.22,21.05h-1.45v-5.89h1.45v.82c.26-.56,.94-.99,1.95-.99,1.47,0,2.3,.94,2.3,2.77v3.3h-1.45v-3.21c0-1.15-.44-1.71-1.36-1.71s-1.45,.56-1.45,1.71v3.21Z"/><path class="d" d="M44.28,18.45v2.6h-1.43V8.5h1.43v9.16l2.32-2.51h1.73l-2.74,2.86,2.72,3.05h-1.76l-2.27-2.6Z"/><path class="d" d="M51.65,13.48c0,.52-.38,.85-.87,.85s-.87-.33-.87-.85,.38-.89,.87-.89,.87,.37,.87,.89Zm-1.6,1.67h1.43v3.96c0,.59,.07,.87,.61,.87,.07,0,.1,0,.21-.02l.1,1.05c-.24,.07-.47,.1-.87,.1-1.15,0-1.48-.73-1.48-2.01v-3.96Z"/><path class="d" d="M54.56,19.08v-2.81h-.84v-1.13h.84v-1.66h1.45v1.66h1.26v1.13h-1.26v2.35c0,1.15,.19,1.34,.77,1.34,.12,0,.28-.02,.42-.05l.17,1.1c-.54,.17-.78,.21-1.24,.21-1.01,0-1.57-.44-1.57-2.14Z"/></g><g><path class="e" d="M14.82,4.83l-3.04,4.86-4.63,7.41H2.35c-1.28,0-2.31,.95-2.31,2.13v.14c0,.6,.22,1.15,.58,1.59-.7-.77-.85-1.89-.27-2.81L8.71,4.78,11.71,0l.14,.08,2.97,4.75Z"/><path class="f" d="M7.14,17.09l-2.19,3.5c-.73,1.17-2.36,1.58-3.63,.9-.27-.14-.5-.32-.69-.52,0,0,0,0-.01-.01-.36-.44-.58-.99-.58-1.59v-.14c0-1.18,1.03-2.13,2.31-2.13H7.14Z"/><path class="f" d="M13.54,17.52c0,1.23-.54,2.35-1.42,3.16-.87,.81-2.08,1.31-3.42,1.31H2.91c-.92,0-1.75-.4-2.26-1.03,.19,.2,.42,.38,.69,.52,1.27,.68,2.9,.28,3.63-.9l2.19-3.5h5.92c.26,0,.47,.2,.47,.44Z"/><path class="f" d="M25.08,21.22l-.05,.03c-2.49,1.32-5.67,.54-7.11-1.76l-6.14-9.81-3.07-4.9L11.71,0l.14,.08,2.97,4.75,10.26,16.4Z"/></g></g></g></g></svg>